<ttFont>
          <CharString index="0">
            -105 callsubr
            90 callsubr
            return
          </CharString>
          <CharString index="1">
            -104 callgsubr
            50 36 126 callsubr
            return
          </CharString>
          <CharString index="2">
            -106 callgsubr
            7 return
          </CharString>
          <CharString index="3">
            -100 callsubr
            12 -1 -1 8 vhcurveto
            47 vlineto
            2 -8 -13 1 -9 hhcurveto
            return
          </CharString>
          <CharString index="4">
            -16 -28 -21 hvcurveto
            27 -19 -36 17 -52 hhcurveto
            -92 -42 -48 -77 hvcurveto
            -91 callgsubr
            return
          </CharString>
          <CharString index="5">
            rmoveto
            9 callgsubr
            -20 -1 vvcurveto
            52 hlineto
            1 -3 18 18 195 callsubr
            71 2 callsubr
            -71 -33 -33 7 8 -25 vhcurveto
            83 -52 -267 vlineto
            -91 70 -50 99 52 33 7 9 30 vhcurveto
            -72 callgsubr
            return
          </CharString>
          <CharString index="6">
            -99 callgsubr
            62 hlineto
            return
          </CharString>
          <CharString index="7">
            -6 -19 -100 callgsubr
            return
          </CharString>
          <CharString index="8">
            -47 callgsubr
            24 58 vhcurveto
            return
          </CharString>
          <CharString index="9">
            104 callgsubr
            -25 -67 callsubr
            165 callsubr
            9 vhcurveto
            return
          </CharString>
          <CharString index="10">
            126 callgsubr
            -33 -98 callgsubr
            return
          </CharString>
          <CharString index="11">
            324 callgsubr
            -88 -19 44 58 hvcurveto
            203 vlineto
            43 14 34 67 return
          </CharString>
          <CharString index="12">
            133 callsubr
            -90 callgsubr
            return
          </CharString>
          <CharString index="13">
            234 callsubr
            240 callsubr
            53 68 hvcurveto
            return
          </CharString>
          <CharString index="14">
            -94 callgsubr
            134 -52 return
          </CharString>
          <CharString index="15">
            0 8 -27 -92 callgsubr
            -8 25 0 vhcurveto
            return
          </CharString>
          <CharString index="16">
            -43 -11 -90 callsubr
            78 hlineto
            return
          </CharString>
          <CharString index="17">
            -25 -67 -67 -12 -53 callsubr
            12 25 67 vhcurveto
            return
          </CharString>
          <CharString index="18">
            rmoveto
            119 vlineto
            61 26 43 75 75 27 -43 -61 vhcurveto
            -119 vlineto
            -260 -160 rmoveto
            -96 59 -50 126 49 37 7 8 28 vhcurveto
            56 vlineto
            -41 callgsubr
            -111 -47 -68 -86 vhcurveto
            endchar
          </CharString>
          <CharString index="19">
            -46 99 -82 callgsubr
            return
          </CharString>
          <CharString index="20">
            193 callsubr
            44 -39 83 -35 callgsubr
            3 callgsubr
            return
          </CharString>
          <CharString index="21">
            -71 callsubr
            19 vhcurveto
            -81 52 return
          </CharString>
          <CharString index="22">
            -134 99 -44 127 54 53 8 7 34 vhcurveto
            51 vlineto
            -8 -30 -50 16 callgsubr
            return
          </CharString>
          <CharString index="23">
            rmoveto
            -20 10 -14 25 26 9 14 181 callgsubr
            129 hmoveto
            -20 9 -14 26 25 10 14 20 20 -10 15 -25 -26 -9 -15 -20 vhcurveto
            return
          </CharString>
          <CharString index="24">
            3 -88 callgsubr
            return
          </CharString>
          <CharString index="25">
            rmoveto
            -91 callsubr
            return
          </CharString>
          <CharString index="26">
            vlineto
            -75 callsubr
            return
          </CharString>
          <CharString index="27">
            135 callsubr
            8 24 20 257 callgsubr
            20 -29 -43 hvcurveto
            -188 vlineto
            -40 -13 -49 callsubr
            8 hhcurveto
            85 -61 callsubr
            return
          </CharString>
          <CharString index="28">
            vvcurveto
            144 -81 callsubr
            return
          </CharString>
          <CharString index="29">
            153 callgsubr
            13 259 callgsubr
            return
          </CharString>
          <CharString index="30">
            -40 callgsubr
            -144 18 callgsubr
            return
          </CharString>
          <CharString index="31">
            hhcurveto
            -48 -30 -103 callsubr
            return
          </CharString>
          <CharString index="32">
            49 -8 -33 callgsubr
            return
          </CharString>
          <CharString index="33">
            rmoveto
            -61 -30 -32 -75 -76 -29 32 61 vhcurveto
            79 vlineto
            61 29 32 76 75 30 -32 -61 vhcurveto
            106 115 rmoveto
            58 -15 vlineto
            -42 -33 -19 -38 -12 hvcurveto
            18 -26 -36 10 -47 hhcurveto
            -112 -51 -57 -87 hvcurveto
            -79 vlineto
            -68 31 -50 67 -18 vhcurveto
            -27 -8 -22 -22 -35 vvcurveto
            -16 vlineto
            -55 43 -30 77 vhcurveto
            60 hlineto
            69 10 -28 -38 hvcurveto
            -10 vlineto
            -44 -31 -28 -91 vhcurveto
            -39 hlineto
            -68 -43 12 23 -40 hvcurveto
            -57 vlineto
            -16 30 51 -13 71 hhcurveto
            40 hlineto
            129 48 48 75 hvcurveto
            12 vlineto
            73 -38 41 -97 vhcurveto
            -59 hlineto
            -52 -18 17 33 40 21 18 41 112 50 57 87 hvcurveto
            79 vlineto
            40 -11 34 -22 24 vhcurveto
            11 12 16 6 21 hhcurveto
            endchar
          </CharString>
          <CharString index="34">
            rmoveto
            -72 -26 -23 -110 -110 -27 22 72 vhcurveto
            35 vlineto
            45 21 28 72 65 callsubr
            132 vlineto
            46 10 27 0 vhcurveto
            185 -106 hlineto
            -35 -27 -9 0 hvcurveto
            -47 vlineto
            0 26 8 30 67 11 -29 -45 vhcurveto
            return
          </CharString>
          <CharString index="35">
            rmoveto
            81 362 82 -362 rlineto
            55 -244 rmoveto
            59 hlineto
            -154 668 rlineto
            -83 hlineto
            -154 -668 rlineto
            59 hlineto
            43 192 rlineto
            187 hlineto
            endchar
          </CharString>
          <CharString index="36">
            vlineto
            -77 47 -43 92 30 28 6 4 return
          </CharString>
          <CharString index="37">
            -93 -38 -37 -77 hvcurveto
            -52 callsubr
            return
          </CharString>
          <CharString index="38">
            vlineto
            -95 callsubr
            return
          </CharString>
          <CharString index="39">
            -60 callsubr
            vlineto
            endchar
          </CharString>
          <CharString index="40">
            -42 callgsubr
            25 36 72 return
          </CharString>
          <CharString index="41">
            -77 50 -47 97 37 25 7 4 15 vhcurveto
            -132 50 440 vlineto
            -84 callgsubr
            vlineto
            endchar
          </CharString>
          <CharString index="42">
            -600 52 600 return
          </CharString>
          <CharString index="43">
            -17 callsubr
            vlineto
            endchar
          </CharString>
          <CharString index="44">
            -40 vlineto
            -77 47 -41 96 vhcurveto
            -49 callgsubr
            return
          </CharString>
          <CharString index="45">
            33 44 hvcurveto
            354 172 vlineto
            -384 hmoveto
            160 -133 hlineto
            10 -19 -27 6 -34 hhcurveto
            -27 -33 -4 -6 -20 hvcurveto
            720 127 rmoveto
            46 -1058 -46 286 -471 vlineto
            -5 callgsubr
            67 13 -29 -44 hvcurveto
            -117 vlineto
            134 callgsubr
            return
          </CharString>
          <CharString index="46">
            34 53 67 hvcurveto
            189 vlineto
            77 -47 43 -91 -29 -23 -4 -7 -19 vhcurveto
            106 return
          </CharString>
          <CharString index="47">
            -6 callsubr
            23 vhcurveto
            -97 211 callgsubr
            return
          </CharString>
          <CharString index="48">
            -46 528 hlineto
            -94 callgsubr
            164 -61 callgsubr
            -304 vlineto
            -96 67 -45 98 58 44 125 callsubr
            -97 callsubr
            50 36 126 callsubr
            return
          </CharString>
          <CharString index="49">
            rmoveto
            -522 vlineto
            -62 -28 -42 -77 -76 -29 42 62 vhcurveto
            522 -57 -523 361 callsubr
            112 113 368 callgsubr
            523 vlineto
            return
          </CharString>
          <CharString index="50">
            rlineto
            40 3 22 26 68 hhcurveto
            26 20 -5 0 hvcurveto
            47 vlineto
            0 -22 5 -25 48 callgsubr
            47 -44 return
          </CharString>
          <CharString index="51">
            -40 callgsubr
            -71 vlineto
            -60 197 callsubr
            return
          </CharString>
          <CharString index="52">
            rmoveto
            -104 callsubr
            -51 -37 -13 -25 -23 hvcurveto
            24 -19 -33 14 -54 hhcurveto
            97 callsubr
            hvcurveto
            106 373 vlineto
            331 hmoveto
            46 -1042 63 callgsubr
            67 12 -30 -43 hvcurveto
            -192 -81 callgsubr
          </CharString>
          <CharString index="53">
            rmoveto
            -12 vlineto
            -20 -5 -11 -16 vhcurveto
            1 -29 -33 40 -46 hhcurveto
            -45 -19 -31 -38 hvcurveto
            -15 46 12 vlineto
            20 6 11 16 vhcurveto
            35 28 -41 46 hhcurveto
            40 22 25 44 hvcurveto
            15 vlineto
            endchar
          </CharString>
          <CharString index="54">
            25 43 vhcurveto
            136 vlineto
            43 return
          </CharString>
          <CharString index="55">
            -43 callsubr
            204 return
          </CharString>
          <CharString index="56">
            rmoveto
            -492 vlineto
            -12 -47 -50 -6 -52 hhcurveto
            -118 -43 250 callgsubr
            116 59 36 110 hvcurveto
            56 -20 callsubr
            22 29 vvcurveto
            50 10 29 61 62 5 271 callgsubr
            -85 vhcurveto
            return
          </CharString>
          <CharString index="57">
            -187 143 -57 callsubr
            return
          </CharString>
          <CharString index="58">
            -32 -58 -1 vhcurveto
            -6 -7 1 -6 hhcurveto
            -48 vlineto
            -1 7 8 0 return
          </CharString>
          <CharString index="59">
            -46 272 hlineto
            0 13 -27 -46 222 callgsubr
            -59 -24 -35 -69 -24 -27 4 3 -19 vhcurveto
            122 -51 -267 vlineto
            -128 90 -45 119 -4 vhcurveto
            -146 67 callgsubr
            return
          </CharString>
          <CharString index="60">
            -82 60 -51 115 326 callsubr
            vhcurveto
            -32 callgsubr
            return
          </CharString>
          <CharString index="61" raw="1">
            073f1d0b   
          </CharString>
          <CharString index="62">
            -13 callsubr
            -19 -36 17 -52 hhcurveto
            return
          </CharString>
          <CharString index="63">
            77 -46 42 -97 vhcurveto
            -17 hlineto
            -71 -19 28 43 hvcurveto
            38 vlineto
            43 19 27 71 vhcurveto
            return
          </CharString>
          <CharString index="64">
            70 callgsubr
            93 92 38 39 77 vhcurveto
            return
          </CharString>
          <CharString index="65">
            rmoveto
            50 hlineto
            49 106 rlineto
            -39 hlineto
            -35 -66 -35 66 rlineto
            -39 hlineto
            return
          </CharString>
          <CharString index="66">
            vlineto
            -59 callgsubr
            return
          </CharString>
          <CharString index="67">
            -77 callsubr
            -72 -25 19 callgsubr
            145 -294 hlineto
            112 callsubr
            23 vhcurveto
            126 callgsubr
            -32 -98 callgsubr
            return
          </CharString>
          <CharString index="68">
            27 9 3 callsubr
            return
          </CharString>
          <CharString index="69">
            134 callgsubr
            25 7 4 15 vhcurveto
            return
          </CharString>
          <CharString index="70">
            rmoveto
            -44 callsubr
            131 143 103 46 -452 21 callsubr
            endchar
          </CharString>
          <CharString index="71">
            hlineto
            -83 callsubr
            return
          </CharString>
          <CharString index="72">
            34 callgsubr
            -763 -48 callsubr
            97 vlineto
            -83 callgsubr
            289 -106 hlineto
            5 -26 -29 4 -28 hhcurveto
            -93 -39 298 callgsubr
            92 34 25 299 callsubr
            98 vlineto
            endchar
          </CharString>
          <CharString index="73">
            rmoveto
            -37 -106 rlineto
            40 hlineto
            56 106 rlineto
            return
          </CharString>
          <CharString index="74">
            -46 307 -95 -91 hlineto
            220 callsubr
            -7 vlineto
            -77 46 -41 96 vhcurveto
            5 hlineto
            68 19 -29 -42 hvcurveto
            -50 vlineto
            -43 -19 -28 -72 -27 -29 2 8 -29 vhcurveto
            74 -50 -212 50 89 vlineto
            -7 28 24 -2 35 hhcurveto
            return
          </CharString>
          <CharString index="75">
            329 callsubr
            24 47 callgsubr
            -37 39 -88 vhcurveto
            -43 hlineto
            -71 -19 26 329 callgsubr
            43 16 26 71 vhcurveto
            return
          </CharString>
          <CharString index="76">
            rmoveto
            -44 -15 -33 -71 292 callgsubr
            vhcurveto
            353 172 vlineto
            return
          </CharString>
          <CharString index="77">
            -69 callgsubr
            22 33 64 28 164 callsubr
            vlineto
            endchar
          </CharString>
          <CharString index="78">
            rmoveto
            -43 -12 -36 -68 -67 -18 35 44 vhcurveto
            242 vlineto
            44 17 35 68 67 13 -35 -44 vhcurveto
            -215 -242 rmoveto
            -43 -18 -36 -67 -67 -13 36 43 vhcurveto
            242 vlineto
            44 14 35 67 67 17 -35 -44 vhcurveto
            340 239 rmoveto
            46 -631 -46 398 -117 vlineto
            -42 -5 -26 -18 -14 -28 rrcurveto
            34 -17 -34 20 -58 hhcurveto
            -93 -39 -47 -77 hvcurveto
            -243 vlineto
            -77 38 -47 93 58 35 19 34 17 vhcurveto
            11 -21 18 -16 26 -8 -84 -153 rcurveline
            56 hlineto
            77 145 rlineto
            7 hlineto
            5 hlineto
            77 -145 rlineto
            56 hlineto
            -83 152 rlineto
            52 16 22 42 59 vvcurveto
            243 vlineto
            69 -32 45 -74 8 vhcurveto
            116 vlineto
            endchar
          </CharString>
          <CharString index="79">
            -77 51 -46 97 vhcurveto
            8 hlineto
            -166 -197 rlineto
            63 hlineto
            172 207 rlineto
            -186 91 callsubr
            40 47 72 vhcurveto
            195 vlineto
            71 -44 255 callsubr
          </CharString>
          <CharString index="80">
            -73 callsubr
            132 228 rmoveto
            46 -542 -46 101 vlineto
            0 -10 -24 -49 vvcurveto
            -132 vlineto
            59 callgsubr
            -88 40 -41 99 -10 vhcurveto
            -86 -157 rlineto
            56 hlineto
            82 155 rlineto
            2 hlineto
            82 -155 rlineto
            56 hlineto
            -86 158 rlineto
            94 10 38 41 89 vvcurveto
            163 callgsubr
            vlineto
            endchar
          </CharString>
          <CharString index="81">
            rmoveto
            -44 -11 -24 -68 -67 285 callgsubr
            98 vlineto
            43 11 304 callsubr
            return
          </CharString>
          <CharString index="82">
            52 -2 callgsubr
          </CharString>
          <CharString index="83">
            hlineto
            5 callgsubr
            return
          </CharString>
          <CharString index="84">
            rmoveto
            178 -220 rlineto
            -23 -12 -24 -12 -49 hhcurveto
            -73 -20 29 45 hvcurveto
            187 14 rmoveto
            -176 217 rlineto
            19 13 25 14 44 hhcurveto
            71 23 -34 -42 hvcurveto
            581 264 rmoveto
            -890 -46 740 -105 -313 -47 108 hlineto
            -40 callgsubr
            -180 vlineto
            -49 -25 -33 -70 -25 -43 8 8 -35 vhcurveto
            10 17 4 22 26 vvcurveto
            189 vlineto
            79 -41 43 -103 -99 86 callsubr
            47 -44 98 37 29 6 11 22 vhcurveto
            -9 30 71 -15 11 callsubr
            182 vlineto
            48 -9 25 0 vhcurveto
            153 -449 324 callsubr
          </CharString>
          <CharString index="85">
            9 callsubr
            6 return
          </CharString>
          <CharString index="86">
            -74 callgsubr
            790 46 rmoveto
            -1092 -45 callgsubr
            441 vlineto
            8 25 38 276 callgsubr
            -44 hvcurveto
            -90 52 91 vlineto
            71 -29 50 -101 -27 -41 -4 -7 -21 vhcurveto
            112 589 -120 -285 -47 81 319 callsubr
            -31 -25 3 6 -24 vhcurveto
            -49 vlineto
            -5 21 23 -3 36 170 callsubr
            238 callsubr
          </CharString>
          <CharString index="87">
            vlineto
            82 -27 339 callgsubr
            -21 5 -29 147 callgsubr
            return
          </CharString>
          <CharString index="88">
            8 callgsubr
            144 hlineto
            return
          </CharString>
          <CharString index="89">
            rmoveto
            -27 -9 -16 -20 -21 9 -16 27 202 callgsubr
            hvcurveto
            -420 249 rmoveto
            -46 297 -95 -79 vlineto
            220 callsubr
            -31 vlineto
            -77 47 -41 96 vhcurveto
            17 90 callgsubr
            -49 175 callgsubr
            -51 -50 6 9 -36 vhcurveto
            -48 vlineto
            27 -6 29 -5 33 -2 -81 -148 rcurveline
            56 hlineto
            77 146 rlineto
            12 260 callsubr
            -83 153 rlineto
            65 14 32 40 63 vvcurveto
            50 vlineto
            77 -46 41 -97 vhcurveto
            -17 hlineto
            -71 -19 28 43 hvcurveto
            29 223 callgsubr
            125 46 hlineto
            endchar
          </CharString>
          <CharString index="90">
            -73 40 -46 85 vhcurveto
            -65 callgsubr
            return
          </CharString>
          <CharString index="91">
            -46 517 -471 hlineto
            -10 callsubr
            -37 -30 -7 -13 -22 hvcurveto
            6 -42 -38 79 callgsubr
            18 vhcurveto
            -81 52 446 vlineto
            7 24 30 276 callgsubr
            -43 hvcurveto
            return
          </CharString>
          <CharString index="92">
            -45 98 58 44 125 callsubr
            -97 callsubr
            50 36 126 callsubr
            168 302 callgsubr
            return
          </CharString>
          <CharString index="93">
            8 hlineto
            -188 -201 rlineto
            68 hlineto
            202 215 rlineto
            -215 17 callgsubr
          </CharString>
          <CharString index="94">
            10 -25 -21 5 -32 62 callsubr
            return
          </CharString>
          <CharString index="95">
            646 rmoveto
            return
          </CharString>
          <CharString index="96">
            150 rmoveto
            -8 -24 -40 -8 -52 hhcurveto
            -98 -41 39 83 hvcurveto
            81 vlineto
            81 353 callsubr
            -8 24 1 vvcurveto
            130 190 callgsubr
            8 -28 -45 hvcurveto
            -71 vlineto
            -54 -23 -17 -67 -3 vhcurveto
            27 -12 -28 19 -55 hhcurveto
            -135 return
          </CharString>
          <CharString index="97">
            -6 -18 -100 callgsubr
            11 53 callgsubr
            -9 hhcurveto
            return
          </CharString>
          <CharString index="98">
            rmoveto
            44 15 28 67 68 14 -28 -44 vhcurveto
            -132 vlineto
            -43 -14 -29 -68 264 callgsubr
            vhcurveto
            return
          </CharString>
          <CharString index="99">
            hlineto
            -72 1 -15 28 43 vvcurveto
            return
          </CharString>
          <CharString index="100">
            600 rmoveto
            185 -337 hlineto
            -7 -18 -31 -7 -39 159 callsubr
            return
          </CharString>
          <CharString index="101">
            93 callsubr
            43 7 5 return
          </CharString>
          <CharString index="102">
            129 rmoveto
            -6 -19 -27 -4 -30 hhcurveto
            -67 -21 29 43 hvcurveto
            193 vlineto
            43 21 29 67 9 12 -1 -1 8 vhcurveto
            47 vlineto
            2 -8 -13 1 -9 hhcurveto
            -92 -47 -43 -77 hvcurveto
            -193 -80 callsubr
            279 46 -617 -46 286 vlineto
            return
          </CharString>
          <CharString index="103">
            -29 -43 hvcurveto
            -188 vlineto
            -40 -13 -32 -58 -1 vhcurveto
            -6 -7 1 return
          </CharString>
          <CharString index="104">
            rmoveto
            291 94 vlineto
            75 29 -39 -61 hvcurveto
            -93 vlineto
            -62 -28 -36 -76 vhcurveto
            181 -326 rmoveto
            -105 285 rlineto
            59 22 27 51 66 vvcurveto
            94 vlineto
            87 -51 63 -109 vhcurveto
            -153 -668 57 273 97 hlineto
            6 5 0 5 hhcurveto
            99 -273 rlineto
            endchar
          </CharString>
          <CharString index="105">
            rmoveto
            143 98 46 -472 -46 321 -95 -107 vlineto
            -96 328 callgsubr
            -13 vlineto
            -46 17 -31 36 -16 vhcurveto
            -37 -16 -19 -30 -46 vvcurveto
            -55 vlineto
            -91 50 -52 133 46 61 7 8 40 vhcurveto
            47 vlineto
            -8 -48 -51 -6 -47 hhcurveto
            -108 -24 38 58 hvcurveto
            54 vlineto
            43 24 27 72 vhcurveto
            71 hlineto
            10 9 -1 -1 8 hvcurveto
            -133 -150 57 -1 114 130 rlineto
            7 -12 2 -16 -19 vvcurveto
            -30 51 31 vlineto
            77 -36 38 -88 vhcurveto
            -75 hlineto
            -71 -19 26 42 hvcurveto
            13 vlineto
            43 16 26 71 vhcurveto
            endchar
          </CharString>
          <CharString index="106">
            -520 vlineto
            -7 -28 -36 -7 -50 33 callsubr
            105 46 return
          </CharString>
          <CharString index="107">
            rmoveto
            -43 -12 -30 -64 -63 -12 30 43 vhcurveto
            72 vlineto
            42 12 30 63 64 12 -29 -43 vhcurveto
            return
          </CharString>
          <CharString index="108">
            hlineto
            305 callgsubr
            -40 -43 -77 -24 5 -31 0 vhcurveto
            53 hlineto
            0 -5 30 24 121 callgsubr
            return
          </CharString>
          <CharString index="109">
            306 callsubr
            -143 290 callsubr
            return
          </CharString>
          <CharString index="110">
            15 21 187 callgsubr
            return
          </CharString>
          <CharString index="111">
            578 842 189 rmoveto
            -6 -14 22 callsubr
            31 327 callgsubr
            151 200 rmoveto
            -1015 -46 524 hlineto
            0 13 -27 -46 222 callgsubr
            -59 -24 -35 -69 -24 -27 4 3 -19 vhcurveto
            161 -61 callgsubr
            -266 vlineto
            return
          </CharString>
          <CharString index="112">
            19 29 73 vhcurveto
            34 48 147 callsubr
            return
          </CharString>
          <CharString index="113">
            -14 hlineto
            -125 -83 -40 -119 -1 hvcurveto
            -2 52 vlineto
            80 48 33 109 vhcurveto
            14 hlineto
            121 39 -47 -90 hvcurveto
            -44 -99 -88 callsubr
            return
          </CharString>
          <CharString index="114">
            153 callgsubr
            12 183 callsubr
            -19 29 44 vvcurveto
            return
          </CharString>
          <CharString index="115">
            34 72 38 35 -8 -6 23 vhcurveto
            -442 211 callgsubr
            return
          </CharString>
          <CharString index="116">
            -73 40 -49 85 3 vhcurveto
            return
          </CharString>
          <CharString index="117">
            59 332 141 rmoveto
            -61 -30 -39 -76 -76 -30 39 61 vhcurveto
            63 vlineto
            61 30 42 76 76 30 -42 -61 vhcurveto
            -209 323 rmoveto
            61 27 39 76 76 27 -39 -61 vhcurveto
            -66 vlineto
            -61 -27 -42 -76 -76 -27 42 61 vhcurveto
            263 66 rmoveto
            88 -48 63 -112 -112 -49 -63 -88 vhcurveto
            -65 vlineto
            -61 24 -46 53 -22 vhcurveto
            -54 -22 -25 -46 -62 vvcurveto
            -62 vlineto
            -88 51 -63 112 112 51 63 88 vhcurveto
            62 vlineto
            62 -25 46 -54 22 vhcurveto
            53 22 23 46 61 vvcurveto
            endchar
          </CharString>
          <CharString index="118">
            44 59 callsubr
            return
          </CharString>
          <CharString index="119">
            178 callsubr
            -20 5 -30 0 vhcurveto
            51 hlineto
            0 -4 27 24 vvcurveto
            50 10 29 61 62 4 -30 -50 vhcurveto
            -55 vlineto
            -83 -42 -16 -85 vhcurveto
            -81 -96 hlineto
            272 callsubr
            return
          </CharString>
          <CharString index="120">
            vlineto
            -76 274 callgsubr
            76 vhcurveto
            return
          </CharString>
          <CharString index="121">
            155 callsubr
            33 51 callgsubr
          </CharString>
          <CharString index="122">
            rmoveto
            26 273 callgsubr
            vlineto
            46 callgsubr
            return
          </CharString>
          <CharString index="123">
            rmoveto
            77 -46 41 -97 vhcurveto
            -17 hlineto
            -71 -19 28 43 hvcurveto
            29 223 callgsubr
            125 46 -474 -46 297 -95 -79 hlineto
            220 callsubr
            -31 vlineto
            -77 47 -41 96 vhcurveto
            17 90 callgsubr
            -49 175 callgsubr
            -51 -50 6 9 -36 vhcurveto
            -48 vlineto
            -9 39 44 -6 54 hhcurveto
            109 54 43 81 hvcurveto
            6 242 rmoveto
            -21 9 -16 27 202 callgsubr
            -27 -9 -16 -20 vhcurveto
            endchar
          </CharString>
          <CharString index="124">
            rmoveto
            -39 -1 -22 -25 -39 hhcurveto
            -39 -22 25 39 -1 hvcurveto
            -46 hlineto
            -59 2 37 -47 69 hhcurveto
            69 37 47 59 2 hvcurveto
            return
          </CharString>
          <CharString index="125">
            378 668 rmoveto
            -260 -668 rlineto
            46 hlineto
            260 668 rlineto
            -228 -128 rmoveto
            -65 -20 -27 -36 -36 -20 27 65 65 20 27 36 36 20 -27 -65 vhcurveto
            -161 hmoveto
            -88 37 -50 68 68 37 50 88 88 -37 50 -68 -68 -37 -50 -88 vhcurveto
            421 -412 rmoveto
            -65 -20 -27 -35 -36 -20 27 65 65 20 27 36 35 20 -27 -65 vhcurveto
            -161 hmoveto
            -88 37 -50 69 68 37 50 88 88 -37 50 -68 -69 -37 -50 -88 vhcurveto
            return
          </CharString>
          <CharString index="126">
            34 83 hvcurveto
            73 38 callgsubr
            return
          </CharString>
          <CharString index="127">
            hhcurveto
            221 callgsubr
            hvcurveto
            -86 52 600 return
          </CharString>
          <CharString index="128">
            -46 297 -95 -79 hlineto
            -97 -46 -40 -77 hvcurveto
            -63 callsubr
            return
          </CharString>
          <CharString index="129">
            -33 -4 -34 hhcurveto
            264 callgsubr
            hvcurveto
            132 vlineto
            43 15 29 67 return
          </CharString>
          <CharString index="130">
            hlineto
            25 callgsubr
            return
          </CharString>
          <CharString index="131">
            vlineto
            -81 57 -46 96 vhcurveto
            15 hlineto
            -163 -175 rlineto
            65 hlineto
            172 184 rlineto
            2 -124 285 callsubr
            -70 hlineto
            322 callsubr
            32 49 hvcurveto
            150 vlineto
            43 18 29 72 vhcurveto
            endchar
          </CharString>
          <CharString index="132">
            -96 67 -15 callsubr
            98 hlineto
            endchar
          </CharString>
          <CharString index="133">
            35 63 520 rmoveto
            -375 vlineto
            -88 46 -67 112 112 46 67 88 vhcurveto
            128 vlineto
            93 -56 47 -92 -41 -39 -8 -15 -31 vhcurveto
            129 vlineto
            53 25 48 90 49 42 -8 -11 31 vhcurveto
            55 vlineto
            9 -27 -42 8 -53 hhcurveto
            -123 -49 -67 -86 hvcurveto
            259 -248 rmoveto
            -127 vlineto
            -61 -25 -42 -76 -76 -25 42 61 vhcurveto
            189 vlineto
            16 27 41 11 40 hhcurveto
            60 34 -25 -64 hvcurveto
            endchar
          </CharString>
          <CharString index="134">
            5 -16 5 -40 -25 vvcurveto
            -134 vlineto
            -44 -14 -31 -67 -27 -27 3 6 -28 vhcurveto
            130 -52 -283 52 105 vlineto
            -6 26 27 -4 31 hhcurveto
            89 42 45 78 hvcurveto
            134 vlineto
            42 -5 23 -4 17 vhcurveto
            return
          </CharString>
          <CharString index="135">
            52 19 callsubr
            return
          </CharString>
          <CharString index="136">
            42 311 418 rmoveto
            -10 -1 -9 -2 -8 vhcurveto
            -176 209 rlineto
            179 hlineto
            -482 vmoveto
            -45 -19 -34 -75 -74 -19 34 45 vhcurveto
            96 vlineto
            45 19 34 74 75 19 -34 -45 vhcurveto
            -187 329 rmoveto
            159 -189 rlineto
            -9 -15 -21 -6 -30 hhcurveto
            -74 -19 34 45 hvcurveto
            332 228 rmoveto
            -478 -46 94 -182 hlineto
            -46 17 -35 34 -21 vhcurveto
            -34 -21 -17 -35 -46 vvcurveto
            -97 vlineto
            return
          </CharString>
          <CharString index="137">
            -5 38 659 rmoveto
            -55 vlineto
            10 31 34 6 49 hhcurveto
            90 21 -35 -53 hvcurveto
            -68 vlineto
            -61 -21 -42 -76 vhcurveto
            -66 -53 66 hlineto
            76 25 -41 -61 hvcurveto
            -69 vlineto
            -54 -25 -35 -90 -49 -47 11 11 -30 vhcurveto
            -57 vlineto
            -10 27 46 -8 53 hhcurveto
            120 53 55 86 hvcurveto
            74 vlineto
            64 -25 42 -53 19 vhcurveto
            52 22 22 41 66 vvcurveto
            69 vlineto
            85 -49 55 -120 -52 -36 -6 -8 -26 vhcurveto
            endchar
          </CharString>
          <CharString index="138">
            rmoveto
            -65 -300 rlineto
            -23 -109 -23 -117 0 vvcurveto
            0 -21 117 -24 110 vhcurveto
            -64 299 rlineto
            -60 hlineto
            126 -565 rlineto
            31 hlineto
            -31 -149 rlineto
            55 hlineto
            159 714 rlineto
            return
          </CharString>
          <CharString index="139">
            53 26 33 90 42 42 -8 -9 30 vhcurveto
            54 vlineto
            8 -28 -41 8 -45 hhcurveto
            -120 -53 -52 -86 hvcurveto
            return
          </CharString>
          <CharString index="140">
            hhcurveto
            -79 -36 callgsubr
            return
          </CharString>
          <CharString index="141">
            -21 10 -15 26 -39 callsubr
            return
          </CharString>
          <CharString index="142">
            43 21 46 callsubr
            return
          </CharString>
          <CharString index="143">
            -204 rmoveto
            -102 146 rlineto
            -49 hlineto
            92 -146 rlineto
            return
          </CharString>
          <CharString index="144">
            50 48 81 hvcurveto
            190 vlineto
            210 callgsubr
            152 -434 return
          </CharString>
          <CharString index="145">
            vlineto
            46 12 31 60 68 9 -31 -46 vhcurveto
            return
          </CharString>
          <CharString index="146">
            -34 -43 vhcurveto
            -146 52 146 vlineto
            46 return
          </CharString>
          <CharString index="147">
            152 callgsubr
            146 callsubr
          </CharString>
          <CharString index="148">
            -92 -38 -37 -77 hvcurveto
            97 callgsubr
            return
          </CharString>
          <CharString index="149">
            -227 -140 112 vlineto
            290 callgsubr
            -89 -39 -43 -77 -29 4 -25 165 callgsubr
            -4 19 34 vvcurveto
            43 12 29 64 63 13 -28 -44 vhcurveto
            -111 -79 vlineto
            return
          </CharString>
          <CharString index="150">
            56 319 565 -63 callgsubr
            56 565 vlineto
            return
          </CharString>
          <CharString index="151">
            -84 callsubr
            endchar
          </CharString>
          <CharString index="152">
            -120 -317 160 callsubr
            return
          </CharString>
          <CharString index="153">
            29 68 8 12 53 callgsubr
            -10 hhcurveto
            -91 107 callgsubr
            return
          </CharString>
          <CharString index="154">
            428 2 callgsubr
            return
          </CharString>
          <CharString index="155">
            123 callsubr
            26 42 vhcurveto
            return
          </CharString>
          <CharString index="156">
            -47 -12 264 callsubr
            -52 vlineto
            -101 76 -43 104 43 54 10 10 39 vhcurveto
            -23 25 37 -12 50 20 callsubr
            98 46 vlineto
            endchar
          </CharString>
          <CharString index="157">
            75 callgsubr
            vlineto
            endchar
          </CharString>
          <CharString index="158">
            -79 callsubr
            94 46 -437 79 callsubr
            return
          </CharString>
          <CharString index="159">
            rmoveto
            -7 -1 -6 -1 -6 vhcurveto
            -178 204 rlineto
            180 hlineto
            -96 -260 rmoveto
            -71 -21 33 43 hvcurveto
            129 vlineto
            163 -188 rlineto
            -12 -16 -22 -5 -24 hhcurveto
            return
          </CharString>
          <CharString index="160">
            rmoveto
            -137 172 137 hlineto
            return
          </CharString>
          <CharString index="161">
            -7 -44 hhcurveto
            -74 -45 32 62 hvcurveto
            return
          </CharString>
          <CharString index="162">
            272 callsubr
            56 53 6 11 41 vhcurveto
            -105 73 callsubr
          </CharString>
          <CharString index="163">
            rmoveto
            -38 -106 rlineto
            38 hlineto
            57 106 rlineto
            -137 hmoveto
            -38 -106 rlineto
            38 hlineto
            57 106 rlineto
            return
          </CharString>
          <CharString index="164">
            -66 -45 -37 -68 hvcurveto
            -10 vlineto
            -38 9 -30 39 -14 vhcurveto
            -40 -11 -13 -33 -38 vvcurveto
            -9 vlineto
            -88 54 -39 109 99 62 33 117 2 vhcurveto
            9 hlineto
            39 24 3 6 28 hvcurveto
            -94 285 callsubr
            -98 vlineto
            322 callsubr
            31 49 hvcurveto
            179 203 callsubr
            71 vhcurveto
            endchar
          </CharString>
          <CharString index="165">
            64 callsubr
            32 327 callgsubr
            return
          </CharString>
          <CharString index="166">
            hhcurveto
            98 50 48 81 hvcurveto
            return
          </CharString>
          <CharString index="167">
            492 rmoveto
            66 callgsubr
            -178 180 callgsubr
            -466 -46 315 96 callsubr
            endchar
          </CharString>
          <CharString index="168">
            166 callsubr
            endchar
          </CharString>
          <CharString index="169">
            hhcurveto
            -52 -39 -16 -28 -21 hvcurveto
            27 return
          </CharString>
          <CharString index="170">
            22 64 668 rmoveto
            -342 vlineto
            8 74 26 4 41 hhcurveto
            76 20 -34 -62 hvcurveto
            -106 vlineto
            -53 -28 -35 -90 -48 -43 13 12 -32 vhcurveto
            -58 vlineto
            -10 30 41 -10 53 hhcurveto
            119 56 55 85 hvcurveto
            108 vlineto
            89 -42 61 -108 -27 -28 -2 -4 -32 vhcurveto
            228 222 53 vlineto
            endchar
          </CharString>
          <CharString index="171">
            rmoveto
            -6 -15 22 callsubr
            return
          </CharString>
          <CharString index="172">
            vhcurveto
            49 48 -49 -8 callsubr
            return
          </CharString>
          <CharString index="173">
            rmoveto
            -43 vlineto
            3 11 39 7 48 hhcurveto
            62 16 -21 -40 hvcurveto
            -18 vlineto
            -35 -4 -25 -36 -24 vhcurveto
            -65 -42 rlineto
            -63 -41 -21 -25 -66 vvcurveto
            -77 236 42 -192 36 vlineto
            47 4 8 61 42 vhcurveto
            62 42 rlineto
            48 33 14 30 54 vvcurveto
            19 vlineto
            66 -39 37 -83 -41 -46 -7 -2 -11 vhcurveto
            return
          </CharString>
          <CharString index="174">
            vlineto
            35 callsubr
            return
          </CharString>
          <CharString index="175">
            rmoveto
            -5 -26 -41 -6 -48 136 callsubr
            return
          </CharString>
          <CharString index="176">
            vlineto
            -47 17 -30 36 -16 vhcurveto
            -37 -16 -19 return
          </CharString>
          <CharString index="177">
            168 -73 callsubr
            132 228 rmoveto
            46 return
          </CharString>
          <CharString index="178">
            hhcurveto
            -70 -25 116 callsubr
            -259 -47 91 hlineto
            0 -10 209 callgsubr
            46 -48 100 return
          </CharString>
          <CharString index="179">
            vlineto
            0 -10 -24 -49 vvcurveto
            52 hmoveto
            46 10 27 0 vhcurveto
            185 -106 hlineto
            -35 -27 -9 0 hvcurveto
            -47 vlineto
            0 26 8 30 67 11 -29 -45 vhcurveto
            -204 vlineto
            -72 -26 -23 -110 -110 -27 22 72 vhcurveto
            35 vlineto
            45 21 28 72 65 callsubr
            return
          </CharString>
          <CharString index="180">
            52 57 callgsubr
          </CharString>
          <CharString index="181">
            -16 -28 -21 hvcurveto
            65 callgsubr
            return
          </CharString>
          <CharString index="182">
            hhcurveto
            -93 -40 192 callgsubr
            265 callgsubr
            return
          </CharString>
          <CharString index="183">
            -129 70 -56 149 64 74 15 11 40 vhcurveto
            281 callsubr
            24 hvcurveto
            314 callsubr
          </CharString>
          <CharString index="184">
            rmoveto
            69 -38 46 -79 8 vhcurveto
            93 197 46 -446 -46 196 -93 vlineto
            110 callsubr
            -52 hmoveto
            0 callgsubr
            endchar
          </CharString>
          <CharString index="185">
            48 63 421 -78 callgsubr
            return
          </CharString>
          <CharString index="186">
            -46 291 hlineto
            -104 callgsubr
            return
          </CharString>
          <CharString index="187">
            -422 -82 callsubr
            return
          </CharString>
          <CharString index="188">
            35 callgsubr
            248 vlineto
            210 callsubr
            return
          </CharString>
          <CharString index="189">
            122 callgsubr
            -23 182 callsubr
            return
          </CharString>
          <CharString index="190">
            rmoveto
            225 callgsubr
            -102 146 rlineto
            return
          </CharString>
          <CharString index="191">
            hvcurveto
            -46 vlineto
            104 callsubr
            return
          </CharString>
          <CharString index="192">
            -46 308 -96 -94 hlineto
            -96 328 callgsubr
            -13 20 callgsubr
            -62 vlineto
            -81 50 -51 116 43 49 4 7 40 vhcurveto
            47 vlineto
            -8 -48 -39 -2 -45 hhcurveto
            -90 -24 323 callsubr
            72 vhcurveto
            return
          </CharString>
          <CharString index="193">
            -46 -44 -78 vhcurveto
            -189 vlineto
            -78 return
          </CharString>
          <CharString index="194">
            314 716 rmoveto
            -151 -102 vlineto
            -86 -63 -50 -95 hvcurveto
            -279 vlineto
            -92 48 -52 95 57 31 18 17 21 vhcurveto
            -32 57 716 vlineto
            -58 -629 rmoveto
            -19 -19 -35 -19 -50 hhcurveto
            -59 -31 30 63 hvcurveto
            278 vlineto
            62 37 30 67 vhcurveto
            90 hlineto
            return
          </CharString>
          <CharString index="195">
            -422 rmoveto
            48 callsubr
            return
          </CharString>
          <CharString index="196">
            204 137 185 callsubr
            return
          </CharString>
          <CharString index="197">
            24 193 callgsubr
            return
          </CharString>
          <CharString index="198">
            50 440 vlineto
            0 36 11 42 67 18 -28 -44 vhcurveto
            -193 vlineto
            -43 -19 -30 -71 2 vhcurveto
            -48 vlineto
            0 11 -1 7 84 return
          </CharString>
          <CharString index="199">
            -46 77 -353 111 callgsubr
            return
          </CharString>
          <CharString index="200">
            117 callgsubr
            49 return
          </CharString>
          <CharString index="201">
            -148 100 callgsubr
          </CharString>
          <CharString index="202">
            49 vlineto
            -10 -33 -40 -7 -46 hhcurveto
            -72 -39 29 59 hvcurveto
            91 vlineto
            43 18 29 72 vhcurveto
            13 hlineto
            110 27 61 60 hvcurveto
            return
          </CharString>
          <CharString index="203">
            vlineto
            -466 vmoveto
            -98 callsubr
            return
          </CharString>
          <CharString index="204">
            -27 -32 -4 -6 -20 return
          </CharString>
          <CharString index="205">
            -121 vlineto
            -45 18 -33 33 -19 vhcurveto
            -31 -21 -17 -33 -44 vvcurveto
            -40 vlineto
            -80 46 -47 100 100 43 47 80 vhcurveto
            269 -49 -94 vlineto
            -4 -16 -36 -8 -41 hhcurveto
            -72 -26 29 43 hvcurveto
            121 148 callsubr
            endchar
          </CharString>
          <CharString index="206">
            172 callgsubr
            7 -28 -45 hvcurveto
            -71 vlineto
            -54 -22 -17 -68 -3 vhcurveto
            27 -12 -28 19 -55 hhcurveto
            -134 -250 rmoveto
            -43 -12 -90 callsubr
            79 hlineto
            return
          </CharString>
          <CharString index="207">
            -46 103 hlineto
            32 callgsubr
            return
          </CharString>
          <CharString index="208">
            120 callgsubr
            57 301 callgsubr
            79 hlineto
            return
          </CharString>
          <CharString index="209">
            146 callgsubr
            353 return
          </CharString>
          <CharString index="210">
            -46 77 -346 304 callgsubr
            return
          </CharString>
          <CharString index="211">
            1 7 10 0 9 hhcurveto
            30 return
          </CharString>
          <CharString index="212">
            168 callgsubr
            4 hlineto
            -1 -3 -3 -36 -76 vvcurveto
            -157 52 -37 callgsubr
          </CharString>
          <CharString index="213">
            4 callgsubr
            167 -294 238 callsubr
          </CharString>
          <CharString index="214">
            284 callgsubr
            -452 -46 297 -95 -79 vlineto
            169 callgsubr
            30 -7 return
          </CharString>
          <CharString index="215">
            rmoveto
            -107 168 rlineto
            44 -29 -27 17 -47 hhcurveto
            -11 -10 29 callgsubr
            -11 -28 18 hvcurveto
            91 -143 rlineto
            -95 -88 callsubr
            hlineto
            endchar
          </CharString>
          <CharString index="216">
            hlineto
            133 callsubr
            -156 vlineto
            -77 44 -39 83 -35 callgsubr
            return
          </CharString>
          <CharString index="217">
            -79 -8 -37 -46 -69 vvcurveto
            -264 vlineto
            -77 46 -48 97 326 callgsubr
            return
          </CharString>
          <CharString index="218">
            -190 73 564 rmoveto
            -564 57 564 vlineto
            return
          </CharString>
          <CharString index="219">
            196 callsubr
            44 10 6 return
          </CharString>
          <CharString index="220">
            -27 callgsubr
            -71 vlineto
            -52 return
          </CharString>
          <CharString index="221">
            10 15 21 21 -10 15 return
          </CharString>
          <CharString index="222">
            141 rmoveto
            -6 -33 -43 -6 -45 hhcurveto
            -98 -36 39 81 hvcurveto
            return
          </CharString>
          <CharString index="223">
            28 51 172 callsubr
            116 46 return
          </CharString>
          <CharString index="224">
            -85 callsubr
            97 vlineto
            -83 callgsubr
            return
          </CharString>
          <CharString index="225">
            145 -38 callgsubr
            return
          </CharString>
          <CharString index="226">
            -255 -566 rlineto
            -51 311 51 -250 vlineto
            256 566 rlineto
            return
          </CharString>
          <CharString index="227">
            -45 10 -36 46 -16 vhcurveto
            -46 -12 -16 -39 return
          </CharString>
          <CharString index="228">
            -108 hlineto
            14 callgsubr
            return
          </CharString>
          <CharString index="229">
            43 12 85 callgsubr
            return
          </CharString>
          <CharString index="230">
            -43 -17 -25 -58 -58 -17 return
          </CharString>
          <CharString index="231">
            13 callsubr
            167 138 -344 73 callsubr
          </CharString>
          <CharString index="232">
            10 6 23 vhcurveto
            return
          </CharString>
          <CharString index="233">
            13 23 23 hvcurveto
            return
          </CharString>
          <CharString index="234">
            6 -41 hhcurveto
            -108 -56 -49 -87 hvcurveto
            -59 318 callsubr
            return
          </CharString>
          <CharString index="235">
            151 callgsubr
            -28 -46 hvcurveto
            return
          </CharString>
          <CharString index="236">
            hlineto
            -40 callgsubr
            -71 vlineto
            -53 -21 -17 return
          </CharString>
          <CharString index="237">
            342 callsubr
            -432 57 435 vlineto
            85 return
          </CharString>
          <CharString index="238">
            -39 192 callgsubr
            -77 return
          </CharString>
          <CharString index="239">
            159 callsubr
            346 return
          </CharString>
          <CharString index="240">
            -83 -44 -37 -77 hvcurveto
            return
          </CharString>
          <CharString index="241">
            343 rmoveto
            185 -143 rlineto
            -42 vlineto
            -4 -9 -30 -9 -47 hhcurveto
            -74 369 callsubr
            185 28 rmoveto
            -184 143 rlineto
            37 4 27 28 67 hhcurveto
            47 30 -10 -4 9 hvcurveto
            return
          </CharString>
          <CharString index="242">
            -86 callsubr
            447 vlineto
            return
          </CharString>
          <CharString index="243">
            hhcurveto
            -98 -42 39 83 hvcurveto
            return
          </CharString>
          <CharString index="244">
            rmoveto
            -1 callsubr
            return
          </CharString>
          <CharString index="245">
            -74 5 668 rmoveto
            -52 229 vlineto
            -60 -192 rlineto
            -39 -121 -22 -80 -124 vvcurveto
            -99 59 98 vlineto
            121 21 80 38 123 vhcurveto
            63 201 rlineto
            45 vlineto
            endchar
          </CharString>
          <CharString index="246">
            18 2 3 16 return
          </CharString>
          <CharString index="247">
            rmoveto
            -320 -51 131 -617 58 617 131 hlineto
            endchar
          </CharString>
          <CharString index="248">
            -34 14 -49 hhcurveto
            -1 hlineto
            -81 -41 -39 -77 hvcurveto
            -46 52 45 vlineto
            43 14 25 57 vhcurveto
            2 hlineto
            58 14 -25 -43 hvcurveto
            -113 -99 -88 callsubr
            return
          </CharString>
          <CharString index="249">
            vlineto
            44 25 36 72 11 8 0 -1 10 vhcurveto
            48 vlineto
            1 -10 -10 0 -10 hhcurveto
            -98 -50 return
          </CharString>
          <CharString index="250">
            vvcurveto
            116 callgsubr
            return
          </CharString>
          <CharString index="251">
            -353 vlineto
            146 callgsubr
            return
          </CharString>
          <CharString index="252">
            155 callsubr
            32 hlineto
            14 20 return
          </CharString>
          <CharString index="253">
            -144 52 -37 callgsubr
          </CharString>
          <CharString index="254">
            -33 hlineto
            -72 1 -15 28 return
          </CharString>
          <CharString index="255">
            203 callsubr
            72 vhcurveto
            return
          </CharString>
          <CharString index="256">
            827 rmoveto
            110 callgsubr
            -108 168 rlineto
            44 -28 -28 17 231 callsubr
            return
          </CharString>
          <CharString index="257">
            rmoveto
            25 10 14 20 20 -10 15 -25 -26 -9 -15 -20 -20 9 -14 26 hvcurveto
            -129 hmoveto
            26 9 14 20 20 -9 15 -26 -25 -10 -15 -20 -20 10 -14 25 hvcurveto
            return
          </CharString>
          <CharString index="258">
            -15 27 26 114 callsubr
            -26 return
          </CharString>
          <CharString index="259">
            rmoveto
            277 callgsubr
            325 callgsubr
            return
          </CharString>
          <CharString index="260">
            vlineto
            -72 -26 -23 -111 -110 -27 22 72 vhcurveto
            35 vlineto
            45 21 28 73 vhcurveto
            49 48 -50 -8 callsubr
            131 vlineto
            56 27 18 48 vhcurveto
            return
          </CharString>
          <CharString index="261">
            vlineto
            -72 40 -50 84 3 vhcurveto
            7 12 259 callgsubr
            return
          </CharString>
          <CharString index="262">
            rmoveto
            -27 -116 rlineto
            return
          </CharString>
          <CharString index="263">
            176 callsubr
            -468 -46 94 return
          </CharString>
          <CharString index="264">
            3 265 625 rmoveto
            -446 -198 vlineto
            324 hmoveto
            -69 489 -95 hlineto
            -217 -489 rlineto
            -52 255 -127 57 127 69 vlineto
            endchar
          </CharString>
          <CharString index="265">
            hlineto
            -68 callsubr
          </CharString>
          <CharString index="266">
            hhcurveto
            -72 -25 32 44 hvcurveto
            return
          </CharString>
          <CharString index="267">
            -47 112 hlineto
            0 8 -27 -93 callgsubr
            return
          </CharString>
          <CharString index="268">
            331 callsubr
            25 21 -5 0 hvcurveto
            47 vlineto
            0 -22 5 -25 48 callgsubr
            46 -44 99 return
          </CharString>
          <CharString index="269">
            -15 27 27 10 15 25 24 -10 16 -27 -27 return
          </CharString>
          <CharString index="270">
            145 99 46 -443 -46 292 -97 -81 return
          </CharString>
          <CharString index="271">
            27 -5 -10 22 vhcurveto
            -414 52 600 99 return
          </CharString>
          <CharString index="272">
            47 39 -9 -4 return
          </CharString>
          <CharString index="273">
            -249 vlineto
            81 callsubr
            return
          </CharString>
          <CharString index="274">
            hlineto
            133 callsubr
            -176 vlineto
            -77 44 -39 83 -35 callgsubr
            170 227 callgsubr
            0 vhcurveto
            47 hlineto
            54 40 -9 -41 hvcurveto
            return
          </CharString>
          <CharString index="275">
            hhcurveto
            -88 -19 44 58 hvcurveto
            203 vlineto
            43 14 34 67 67 15 -34 -43 vhcurveto
            -146 52 146 38 callsubr
            return
          </CharString>
          <CharString index="276">
            -129 70 -56 149 54 52 12 10 40 vhcurveto
            -25 25 38 -13 52 20 callsubr
            99 46 vlineto
            endchar
          </CharString>
          <CharString index="277">
            hhcurveto
            97 37 callsubr
            return
          </CharString>
          <CharString index="278">
            201 callgsubr
            -21 -18 -62 -3 vhcurveto
            return
          </CharString>
          <CharString index="279">
            hvcurveto
            152 vlineto
            60 10 32 0 vhcurveto
            return
          </CharString>
          <CharString index="280">
            -46 104 338 callgsubr
            return
          </CharString>
          <CharString index="281">
            hlineto
            -108 167 rlineto
            44 -29 return
          </CharString>
          <CharString index="282">
            2 callgsubr
            80 callsubr
            return
          </CharString>
          <CharString index="283">
            182 -204 vlineto
            -40 -14 -32 -58 -5 -8 0 1 -6 vhcurveto
            -48 vlineto
            -1 8 89 callgsubr
            204 87 46 return
          </CharString>
          <CharString index="284">
            -34 callsubr
            endchar
          </CharString>
          <CharString index="285">
            115 60 217 callgsubr
            return
          </CharString>
          <CharString index="286">
            -248 rmoveto
            2 10 1 10 283 callsubr
            return
          </CharString>
          <CharString index="287">
            264 vlineto
            69 -38 46 -79 8 vhcurveto
            93 vlineto
            endchar
          </CharString>
          <CharString index="288">
            vlineto
            -76 38 -39 93 92 38 39 76 vhcurveto
            return
          </CharString>
          <CharString index="289">
            -27 -70 -74 -20 29 45 vhcurveto
            return
          </CharString>
          <CharString index="290">
            1 1 hhcurveto
            48 vlineto
            -72 -2 return
          </CharString>
          <CharString index="291">
            52 33 7 9 30 return
          </CharString>
          <CharString index="292">
            -382 52 600 return
          </CharString>
          <CharString index="293">
            151 46 rmoveto
            return
          </CharString>
          <CharString index="294">
            -57 callsubr
            98 return
          </CharString>
          <CharString index="295">
            rlineto
            64 15 32 40 62 vvcurveto
            230 callgsubr
          </CharString>
          <CharString index="296">
            1 -18 27 43 vvcurveto
            300 callsubr
            return
          </CharString>
          <CharString index="297">
            -322 -668 rlineto
            46 hlineto
            322 668 rlineto
            return
          </CharString>
          <CharString index="298">
            rmoveto
            -42 214 42 vlineto
            return
          </CharString>
          <CharString index="299">
            7 -25 -30 7 -42 hhcurveto
            return
          </CharString>
          <CharString index="300">
            -185 vlineto
            -77 return
          </CharString>
          <CharString index="301">
            vlineto
            -43 -25 -30 -72 -27 -28 2 8 -29 vhcurveto
            74 -50 -212 50 90 vlineto
            -8 28 24 -2 34 hhcurveto
            105 42 42 78 hvcurveto
            return
          </CharString>
          <CharString index="302">
            vvcurveto
            226 callsubr
            return
          </CharString>
          <CharString index="303">
            305 callsubr
            57 return
          </CharString>
          <CharString index="304">
            -27 -14 -85 vhcurveto
            return
          </CharString>
          <CharString index="305">
            -18 35 668 rmoveto
            -51 249 vlineto
            119 callsubr
            51 vlineto
            return
          </CharString>
          <CharString index="306">
            -23 -3 -21 hhcurveto
            -87 -20 44 58 hvcurveto
            203 vlineto
            43 15 34 67 64 -3 callgsubr
            53 186 callgsubr
            return
          </CharString>
          <CharString index="307">
            vlineto
            -57 -27 -13 -81 vhcurveto
            -24 -47 hlineto
            -136 86 -33 99 44 46 6 5 31 vhcurveto
            -92 17 callgsubr
          </CharString>
          <CharString index="308">
            21 -29 -43 hvcurveto
            -188 vlineto
            -40 return
          </CharString>
          <CharString index="309">
            vlineto
            43 275 callgsubr
            return
          </CharString>
          <CharString index="310">
            vlineto
            43 19 29 return
          </CharString>
          <CharString index="311">
            235 callgsubr
            0 13 -28 -46 vvcurveto
            return
          </CharString>
          <CharString index="312">
            -47 -13 264 callsubr
            -57 vlineto
            -102 76 -42 103 50 35 6 9 30 vhcurveto
            -78 256 callgsubr
          </CharString>
          <CharString index="313">
            rmoveto
            -267 -277 rlineto
            69 hlineto
            105 109 return
          </CharString>
          <CharString index="314">
            -108 vlineto
            14 callgsubr
            return
          </CharString>
          <CharString index="315">
            -7 -47 hvcurveto
            -74 vlineto
            -136 return
          </CharString>
          <CharString index="316">
            291 callsubr
            vhcurveto
            return
          </CharString>
          <CharString index="317">
            44 21 30 72 vhcurveto
            return
          </CharString>
          <CharString index="318">
            -12 -33 callgsubr
            return
          </CharString>
          <CharString index="319">
            vhcurveto
            -149 -130 rlineto
            67 hlineto
            156 139 rlineto
            46 vlineto
            -5 -43 -25 -4 -52 hhcurveto
            -86 -49 24 74 hvcurveto
            return
          </CharString>
          <CharString index="320">
            hhcurveto
            83 43 39 77 hvcurveto
            -66 callgsubr
            46 hlineto
            endchar
          </CharString>
          <CharString index="321">
            -123 125 668 rmoveto
            -115 -82 rlineto
            -66 vlineto
            130 94 rlineto
            -614 57 668 vlineto
            endchar
          </CharString>
          <CharString index="322">
            -242 70 710 rmoveto
            -40 -193 rlineto
            34 hlineto
            16 34 42 95 35 vvcurveto
            19 -13 10 -17 vhcurveto
            endchar
          </CharString>
          <CharString index="323">
            -8 48 245 callsubr
            return
          </CharString>
          <CharString index="324">
            vlineto
            44 24 34 73 vhcurveto
            17 hlineto
            50 22 -16 -35 5 hvcurveto
            return
          </CharString>
          <CharString index="325">
            2 10 1 11 12 -79 callsubr
            return
          </CharString>
          <CharString index="326">
            129 callgsubr
            18 return
          </CharString>
          <CharString index="327">
            -97 251 callsubr
            return
          </CharString>
          <CharString index="328">
            455 rmoveto
            145 return
          </CharString>
          <CharString index="329">
            vlineto
            -88 64 -49 99 46 358 callsubr
            -10 -32 -39 -8 -44 hhcurveto
            -72 -39 30 59 hvcurveto
            return
          </CharString>
          <CharString index="330">
            90 callsubr
            68 11 -29 -44 hvcurveto
            return
          </CharString>
          <CharString index="331">
            -422 rmoveto
            -43 -17 -25 return
          </CharString>
          <CharString index="332">
            hhcurveto
            -78 -21 38 44 hvcurveto
            return
          </CharString>
          <CharString index="333">
            44 19 33 72 return
          </CharString>
          <CharString index="334">
            hlineto
            -422 vmoveto
            -43 -11 -25 -68 -67 362 callsubr
            67 vhcurveto
            79 hlineto
            return
          </CharString>
          <CharString index="335">
            -172 -78 vlineto
            -70 callsubr
            return
          </CharString>
          <CharString index="336">
            rmoveto
            22 callgsubr
            224 51 vlineto
            endchar
          </CharString>
          <CharString index="337">
            0 8 345 callgsubr
            return
          </CharString>
          <CharString index="338">
            -46 hhcurveto
            -12 251 callgsubr
            return
          </CharString>
          <CharString index="339">
            60 10 32 220 callgsubr
            return
          </CharString>
          <CharString index="340">
            rmoveto
            -716 57 716 vlineto
            return
          </CharString>
          <CharString index="341">
            155 -283 return
          </CharString>
          <CharString index="342">
            5 callgsubr
            421 vlineto
            8 26 38 2 26 hhcurveto
            return
          </CharString>
          <CharString index="343">
            36 17 25 63 vhcurveto
            18 41 -18 hlineto
            -61 1 -13 24 37 vvcurveto
            9 vlineto
            46 23 16 40 vhcurveto
            return
          </CharString>
          <CharString index="344">
            -121 -183 121 -183 rlineto
            60 hlineto
            -122 183 122 183 rlineto
            endchar
          </CharString>
          <CharString index="345">
            211 callgsubr
            hlineto
            endchar
          </CharString>
          <CharString index="346">
            vlineto
            44 21 29 72 11 16 -1 -1 5 vhcurveto
            47 vlineto
            1 -4 -16 2 -12 hhcurveto
            -98 -47 return
          </CharString>
          <CharString index="347">
            hlineto
            -40 -15 -32 -58 -7 -13 1 1 -8 vhcurveto
            -55 callgsubr
            return
          </CharString>
          <CharString index="348">
            141 rmoveto
            -6 -32 -44 -6 -44 hhcurveto
            -99 -35 39 81 hvcurveto
            2 vlineto
            79 53 33 83 hvcurveto
            return
          </CharString>
          <CharString index="349">
            178 -26 callsubr
            return
          </CharString>
          <CharString index="350">
            -107 vlineto
            123 callsubr
            25 43 vhcurveto
            112 vlineto
            43 17 24 58 vhcurveto
            endchar
          </CharString>
          <CharString index="351">
            26 10 16 25 24 337 callsubr
            -24 return
          </CharString>
          <CharString index="352">
            hhcurveto
            196 callgsubr
            hvcurveto
            -97 211 callgsubr
            return
          </CharString>
          <CharString index="353">
            vlineto
            7 223 callsubr
            return
          </CharString>
          <CharString index="354">
            -43 -11 -25 123 callgsubr
            return
          </CharString>
          <CharString index="355">
            vlineto
            43 19 26 71 vhcurveto
            return
          </CharString>
          <CharString index="356">
            vlineto
            43 12 25 67 vhcurveto
            return
          </CharString>
          <CharString index="357">
            328 callsubr
            vhcurveto
            return
          </CharString>
          <CharString index="358">
            -46 -40 -77 hvcurveto
            return
          </CharString>
          <CharString index="359">
            -58 -7 -13 1 1 -8 vhcurveto
            -55 callgsubr
            53 68 hvcurveto
            return
          </CharString>
          <CharString index="360">
            45 75 rmoveto
            -40 -200 rlineto
            35 hlineto
            20 42 45 96 33 vvcurveto
            20 -14 9 -17 vhcurveto
            return
          </CharString>
          <CharString index="361">
            vlineto
            -46 -19 -36 -78 -78 -19 36 47 vhcurveto
            166 vlineto
            44 19 28 71 vhcurveto
            endchar
          </CharString>
          <CharString index="362">
            49 -92 -41 -38 -12 0 vhcurveto
            112 vlineto
            endchar
          </CharString>
          <CharString index="363">
            -78 51 -46 97 return
          </CharString>
          <CharString index="364">
            -258 82 callsubr
            return
          </CharString>
          <CharString index="365">
            hlineto
            0 9 -27 callgsubr
            -144 18 callgsubr
            -72 -25 -26 5 5 -21 vhcurveto
            return
          </CharString>
          <CharString index="366">
            -5 -18 -46 -9 354 callsubr
            return
          </CharString>
          <CharString index="367">
            hlineto
            77 -146 rlineto
            56 hlineto
            return
          </CharString>
          <CharString index="368">
            -12 -16 -39 -44 vvcurveto
            return
          </CharString>
          <CharString index="369">
            24 139 callsubr
            return
          </CharString>
          <CharString index="370">
            -21 10 -15 26 return
          </CharString>
          <CharString index="371">
            -16 -38 -45 vvcurveto
            return
          </CharString>
          <CharString index="372">
            vhcurveto
            -86 -157 rlineto
            56 hlineto
            78 148 10 -1 78 -147 rlineto
            56 hlineto
            return
          </CharString>
          <CharString index="373">
            3 7 -27 -45 hvcurveto
            -140 vlineto
            -43 -18 -34 -72 -25 -26 4 6 -21 vhcurveto
            return
          </CharString>
          <CharString index="374">
            -92 -37 -39 -76 hvcurveto
            -80 vlineto
            -77 35 -44 93 92 35 46 77 vhcurveto
            147 return
          </CharString>
          <CharString index="375">
            rmoveto
            -25 9 -15 27 27 10 15 25 25 -10 15 -27 -27 -9 -15 -25 vhcurveto
            return
          </CharString>
          <CharString index="376">
            -59 callgsubr
            vlineto
            endchar
          </CharString>
          <CharString index="377">
            249 callsubr
            79 hlineto
            return
          </CharString>
          <CharString index="378">
            114 callgsubr
            76 46 return
          </CharString>
          <CharString index="379">
            -129 67 -56 145 return
          </CharString>
          <CharString index="380">
            34 83 hvcurveto
            73 vlineto
            48 return
          </CharString>
          <CharString index="381">
            -353 vlineto
            -78 41 -48 return
          </CharString>
          <CharString index="382">
            hlineto
            0 -10 -31 -60 vvcurveto
            return
          </CharString>
          <CharString index="383">
            -46 78 -355 return
          </CharString>
          <CharString index="384">
            58 vhcurveto
            62 hlineto
            return
          </CharString>
          <CharString index="385">
            -64 35 -42 62 -16 vhcurveto
            -82 -1 -30 -28 -85 hhcurveto
            -84 -32 21 61 hvcurveto
            return
          </CharString>
          <CharString index="386">
            rmoveto
            10 -58 -40 -12 -54 26 -79 37 rcurveline
            -65 31 -73 -24 -76 vvcurveto
            -13 return
          </CharString>
          <CharString index="387">
            rmoveto
            -50 hlineto
            -49 -106 rlineto
            39 hlineto
            35 66 35 -66 rlineto
            39 hlineto
            endchar
          </CharString>
          <CharString index="388">
            -22 35 45 -7 46 hhcurveto
            291 callgsubr
            return
          </CharString>
          <CharString index="389">
            vvcurveto
            50 11 29 60 63 4 -30 -50 vhcurveto
            return
          </CharString>
          <CharString index="390">
            11 -79 callsubr
            return
          </CharString>
          <CharString index="391">
            36 110 hvcurveto
            return
          </CharString>
          <CharString index="392">
            49 241 -49 return
          </CharString>
          <CharString index="393">
            170 86 callgsubr
            return
          </CharString>
          <CharString index="394">
            129 -12 callsubr
            102 vlineto
            66 32 13 52 vhcurveto
            4 49 -8 hlineto
            return
          </CharString>
          <CharString index="395">
            -42 -37 -12 0 vhcurveto
            112 vlineto
            endchar
          </CharString>
          <CharString index="396">
            52 600 99 46 hlineto
            endchar
          </CharString>
          <CharString index="397">
            vlineto
            -44 -19 -33 return
          </CharString>
          <CharString index="398">
            97 41 48 78 return
          </CharString>
          <CharString index="399">
            99 46 vlineto
            endchar
          </CharString>
          <CharString index="400">
            rmoveto
            46 -467 -46 207 -94 vlineto
            -80 -7 -37 -46 -70 vvcurveto
            return
          </CharString>
          <CharString index="401">
            105 vlineto
            88 59 56 94 hvcurveto
            285 vlineto
            85 -53 47 -82 -47 return
          </CharString>
          <CharString index="402">
            276 callsubr
            vlineto
            -38 callsubr
            return
          </CharString>
          <CharString index="403">
            -110 hlineto
            192 callsubr
            return
          </CharString>
          <CharString index="404">
            -24 -4 -34 hhcurveto
            -70 -24 28 51 hvcurveto
            return
          </CharString>
          <CharString index="405">
            -44 -20 -33 -72 -73 -19 33 44 vhcurveto
            return
          </CharString>
          <CharString index="406">
            4 6 24 vhcurveto
            -141 52 600 return
          </CharString>
          <CharString index="407">
            7 248 callsubr
            return
          </CharString>
          <CharString index="408">
            227 callgsubr
            1 vvcurveto
            return
          </CharString>
          <CharString index="409">
            -29 hhcurveto
            -68 -21 29 return
          </CharString>
          <CharString index="410">
            9 15 20 20 -9 return
          </CharString>
          <CharString index="411">
            25 67 vhcurveto
            79 hlineto
            return
          </CharString>
          <CharString index="412">
            -96 67 -45 99 return
          </CharString>
          <CharString index="413">
            19 -33 -43 vhcurveto
            return
          </CharString>
          <CharString index="414">
            hlineto
            -40 callgsubr
            -188 vlineto
            -49 -25 -33 -71 -36 return
          </CharString>
          <CharString index="415">
            261 callsubr
            -37 vlineto
            -102 54 -39 135 136 return
          </CharString>
          <CharString index="416">
            250 178 rmoveto
            48 callsubr
            return
          </CharString>
          <CharString index="417">
            33 72 72 2 callsubr
            -72 return
          </CharString>
          <CharString index="418">
            33 7 9 31 vhcurveto
            307 callgsubr
            -35 -7 -44 hhcurveto
            -74 return
          </CharString>
          <CharString index="419">
            vlineto
            -40 callgsubr
            -71 vlineto
            -60 -28 -14 -85 vhcurveto
            -20 return
          </CharString>
          <CharString index="420">
            48 43 255 callgsubr
          </CharString>
          <CharString index="421">
            -97 73 callsubr
          </CharString>
          <CharString index="422">
            51 20 vvcurveto
            18 return
          </CharString>
          <CharString index="423">
            -59 181 callsubr
            126 return
          </CharString>
          <CharString index="424">
            vlineto
            -53 -37 -28 -39 -31 vhcurveto
            -38 31 -37 28 53 vvcurveto
            return
          </CharString>
          <CharString index="425">
            52 58 vlineto
            54 31 34 83 39 33 -5 -9 29 vhcurveto
            return
          </CharString>
          <CharString index="426">
            vlineto
            -40 callgsubr
            -188 vlineto
            -49 -25 -33 -70 return
          </CharString>
          <CharString index="427">
            -179 40 347 rmoveto
            -47 139 47 vlineto
            endchar
          </CharString>
          <CharString index="428">
            249 callsubr
            78 hlineto
            return
          </CharString>
          <CharString index="429">
            -7 -31 -20 359 callsubr
            return
          </CharString>
          <CharString index="430">
            37 48 329 callsubr
            24 26 return
          </CharString>
          <CharString index="431">
            52 600 98 hlineto
            endchar
          </CharString>
          <CharString index="432">
            rmoveto
            145 99 46 return
          </CharString>
          <CharString index="433">
            60 38 6 10 25 return
          </CharString>
          <CharString index="434">
            -123 -262 return
          </CharString>
          <CharString index="435">
            -27 -9 -15 -21 return
          </CharString>
          <CharString index="436">
            hvcurveto
            61 vlineto
            44 return
          </CharString>
          <CharString index="437">
            hlineto
            351 callsubr
            return
          </CharString>
          <CharString index="438">
            vlineto
            -186 142 rlineto
            40 3 22 26 68 hhcurveto
            return
          </CharString>
          <CharString index="439">
            rmoveto
            348 callsubr
            return
          </CharString>
          <CharString index="440">
            -204 rmoveto
            48 callsubr
            return
          </CharString>
          <CharString index="441">
            0 41 -5 59 vhcurveto
            46 vlineto
            -59 -41 -4 0 hvcurveto
            return
          </CharString>
          <CharString index="442">
            -21 9 -16 27 26 10 16 21 20 -10 16 -26 return
          </CharString>
          <CharString index="443">
            vlineto
            -204 147 rlineto
            50 44 38 32 77 vvcurveto
            return
          </CharString>
          <CharString index="444">
            -10 16 -26 -27 -10 -16 return
          </CharString>
          <CharString index="445">
            1 7 9 1 9 hhcurveto
            return
          </CharString>
          <CharString index="446">
            145 rmoveto
            -5 -26 -40 return
          </CharString>
          <CharString index="447">
            vlineto
            81 52 34 83 hvcurveto
            return
          </CharString>
          <CharString index="448">
            -40 -43 -77 vhcurveto
            return
          </CharString>
          <CharString index="449">
            31 -25 -57 hvcurveto
            return
          </CharString>
          <CharString index="450">
            -16 -34 -41 -94 -35 vvcurveto
            -20 12 -10 17 vhcurveto
            return
          </CharString>
          <CharString index="451">
            113 callsubr
            -21 -18 -61 -3 vhcurveto
            return
          </CharString>
          <CharString index="452">
            -7 -30 -21 359 callsubr
            32 49 hvcurveto
            return
          </CharString>
          <CharString index="453">
            vhcurveto
            -25 hlineto
            -71 -19 25 44 hvcurveto
            3 vlineto
            43 return
          </CharString>
          <CharString index="454">
            -97 -65 vlineto
            -98 -46 -44 -77 hvcurveto
            -249 vlineto
            return
          </CharString>
          <CharString index="455">
            232 callsubr
            -259 -47 return
          </CharString>
          <CharString index="456">
            hlineto
            -24 -165 rlineto
            50 hlineto
            24 165 rlineto
            return
          </CharString>
          <CharString index="457">
            -93 vlineto
            -79 -8 -37 -46 -69 vvcurveto
            -264 vlineto
            return
          </CharString>
          <CharString index="458">
            17 36 36 12 357 callgsubr
            return
          </CharString>
          <CharString index="459">
            vlineto
            71 -39 45 -80 7 vhcurveto
            94 vlineto
            endchar
          </CharString>
          <CharString index="460">
            52 273 callsubr
            return
          </CharString>
          <CharString index="461">
            -48 hhcurveto
            -81 -48 24 74 hvcurveto
            return
          </CharString>
          <CharString index="462">
            -72 -38 -25 7 8 -28 vhcurveto
            return
          </CharString>
          <CharString index="463">
            457 284 callgsubr
            return
          </CharString>
          <CharString index="464">
            hhcurveto
            -27 -41 -4 -7 -21 hvcurveto
            return
          </CharString>
          <CharString index="465">
            42 8 9 28 vhcurveto
            49 vlineto
            return
          </CharString>
          <CharString index="466">
            -3 -38 hhcurveto
            -72 -30 return
          </CharString>
          <CharString index="467">
            -50 63 -110 vhcurveto
            return
          </CharString>
          <CharString index="468">
            vlineto
            -88 50 -67 return
          </CharString>
          <CharString index="469">
            -11 -53 callsubr
            11 25 return
          </CharString>
          <CharString index="470">
            hlineto
            201 callgsubr
            -20 return
          </CharString>
          <CharString index="471">
            39 83 hvcurveto
            81 vlineto
            12 callgsubr
            return
          </CharString>
          <CharString index="472">
            -33 callgsubr
            130 185 callgsubr
            return
          </CharString>
          <CharString index="473">
            -43 -78 hvcurveto
            -258 vlineto
            -80 46 -50 102 return
          </CharString>
          <CharString index="474">
            601 292 callsubr
          </CharString>
          <CharString index="475">
            -112 -111 return
          </CharString>
          <CharString index="476">
            -25 33 44 hvcurveto
            return
          </CharString>
          <CharString index="477">
            150 46 rmoveto
            return
          </CharString>
        <CharString name=".notdef">
          357 178 hmoveto
          394 701 -394 hlineto
          57 -52 rmoveto
          281 -597 -281 hlineto
          endchar
        </CharString>
        <CharString name="A">
          36 133 244 -72 callsubr
        </CharString>
        <CharString name="AE">
          255 182 244 rmoveto
          172 380 rlineto
          -380 vlineto
          281 373 rmoveto
          51 -316 vlineto
          -310 -668 rlineto
          62 hlineto
          87 192 rlineto
          196 -192 281 51 -224 260 195 51 -195 255 hlineto
          endchar
        </CharString>
        <CharString name="Aacute">
          36 292 816 rmoveto
          -59 hlineto
          -37 -106 rlineto
          40 hlineto
          -103 -466 -72 callsubr
        </CharString>
        <CharString name="Abreve">
          36 276 816 17 callsubr
          -189 -572 -72 callsubr
        </CharString>
        <CharString name="Acircumflex">
          36 216 776 23 callgsubr
          -48 -466 -72 callsubr
        </CharString>
        <CharString name="Adieresis">
          36 278 727 150 callsubr
          -16 -483 -72 callsubr
        </CharString>
        <CharString name="Agrave">
          36 228 710 rmoveto
          -37 106 rlineto
          -59 hlineto
          56 -106 rlineto
          -55 -466 -72 callsubr
        </CharString>
        <CharString name="Amacron">
          36 320 784 rmoveto
          -214 -42 214 hlineto
          -187 -498 -72 callsubr
        </CharString>
        <CharString name="Aogonek">
          36 133 244 rmoveto
          81 362 82 -362 rlineto
          114 -244 rmoveto
          -154 668 rlineto
          -83 hlineto
          -154 -668 rlineto
          59 hlineto
          43 192 rlineto
          187 hlineto
          43 -192 rlineto
          24 hlineto
          -28 callgsubr
          endchar
        </CharString>
        <CharString name="Aring">
          36 214 799 rmoveto
          23 13 -14 -22 -22 -13 -15 -23 -23 -13 15 22 22 13 14 23 hvcurveto
          -108 vmoveto
          47 26 33 39 40 -26 31 -47 -46 -27 -31 -40 -39 27 -33 46 hvcurveto
          -81 -447 -72 callsubr
        </CharString>
        <CharString name="Atilde">
          36 147 732 rmoveto
          20 6 11 16 vhcurveto
          35 28 -41 46 hhcurveto
          40 22 25 44 hvcurveto
          15 -46 -12 vlineto
          -20 -5 -11 -16 vhcurveto
          1 -29 -33 40 -46 hhcurveto
          -45 -19 -31 -38 hvcurveto
          -15 46 vlineto
          -14 -476 -72 callsubr
        </CharString>
        <CharString name="B">
          70 343 151 rmoveto
          -61 -29 -39 -75 vhcurveto
          -109 259 109 hlineto
          75 29 -39 -61 hvcurveto
          -110 407 rmoveto
          75 29 -39 -61 hvcurveto
          -55 vlineto
          -62 -29 -39 -75 vhcurveto
          -103 256 hlineto
          265 -100 rmoveto
          89 -50 62 -110 vhcurveto
          -162 -668 168 hlineto
          110 50 62 89 hvcurveto
          58 vlineto
          62 -26 46 -55 20 vhcurveto
          51 21 24 45 60 vvcurveto
          endchar
        </CharString>
        <CharString name="C">
          -2 63 535 rmoveto
          -402 vlineto
          -86 53 -52 120 44 44 7 9 28 vhcurveto
          54 vlineto
          164 callgsubr
          400 vlineto
          32 callsubr
          endchar
        </CharString>
        <CharString name="CR">
          -393 endchar
        </CharString>
        <CharString name="Cacute">
          -2 239 816 -34 callsubr
          -235 -281 rmoveto
          -402 vlineto
          -86 53 -52 120 44 44 7 9 28 vhcurveto
          54 vlineto
          164 callgsubr
          400 vlineto
          32 callsubr
          endchar
        </CharString>
        <CharString name="Ccaron">
          -2 199 710 -42 callsubr
          -30 -282 rmoveto
          32 callsubr
          -402 206 callgsubr
        </CharString>
        <CharString name="Ccedilla">
          -2 352 65 rmoveto
          164 callgsubr
          400 vlineto
          32 callsubr
          -402 vlineto
          -78 44 -50 97 -9 vhcurveto
          -13 -64 64 callgsubr
          8 35 rlineto
          43 43 7 9 28 hvcurveto
          endchar
        </CharString>
        <CharString name="D">
          68 191 callgsubr
          109 callgsubr
          102 -151 rmoveto
          -365 vlineto
          341 callgsubr
          566 107 hlineto
          75 28 -39 -61 hvcurveto
          endchar
        </CharString>
        <CharString name="Dcaron">
          68 199 710 -42 callsubr
          190 -664 rmoveto
          341 callgsubr
          566 244 callgsubr
          -668 109 callgsubr
          endchar
        </CharString>
        <CharString name="Dcroat">
          334 callgsubr
          258 109 51 -109 257 244 callgsubr
          -308 -61 -51 61 -309 109 callgsubr
          endchar
        </CharString>
        <CharString name="E">
          0 73 668 229 callsubr
        </CharString>
        <CharString name="Eacute">
          0 233 816 -34 callsubr
          -219 -148 229 callsubr
        </CharString>
        <CharString name="Ecaron">
          0 191 710 -42 callsubr
          212 -199 rmoveto
          51 -281 22 callgsubr
          vlineto
          endchar
        </CharString>
        <CharString name="Ecircumflex">
          0 208 776 23 callgsubr
          181 -93 rmoveto
          51 -281 22 callgsubr
          vlineto
          endchar
        </CharString>
        <CharString name="Edieresis">
          0 116 761 -84 callsubr
          -172 -93 229 callsubr
        </CharString>
        <CharString name="Edotaccent">
          0 73 668 rmoveto
          22 callgsubr
          224 51 vlineto
          -170 120 62 callgsubr
        </CharString>
        <CharString name="Egrave">
          0 73 668 rmoveto
          22 callgsubr
          224 51 vlineto
          -216 148 81 callgsubr
        </CharString>
        <CharString name="Emacron">
          0 73 668 rmoveto
          22 callgsubr
          224 51 vlineto
          -246 116 191 callsubr
          endchar
        </CharString>
        <CharString name="Eogonek">
          0 354 617 rmoveto
          51 -281 -668 247 vlineto
          -28 callgsubr
          1 51 -224 260 196 51 -196 255 hlineto
          endchar
        </CharString>
        <CharString name="Eth">
          334 callgsubr
          251 117 51 -117 264 244 callgsubr
          -315 -76 -51 76 -302 109 callgsubr
          endchar
        </CharString>
        <CharString name="Euro">
          2 123 251 rmoveto
          164 45 -164 88 164 44 -164 106 hlineto
          32 callsubr
          -107 -52 -44 52 -88 -52 -45 52 -118 206 callgsubr
        </CharString>
        <CharString name="F">
          -28 183 callgsubr
          300 206 51 -206 266 215 51 vlineto
          endchar
        </CharString>
        <CharString name="G">
          -11 callgsubr
          endchar
        </CharString>
        <CharString name="Gbreve">
          -11 callgsubr
          224 286 17 callsubr
          endchar
        </CharString>
        <CharString name="H">
          96 357 668 rmoveto
          -315 -227 315 -57 -668 57 302 227 -302 59 668 vlineto
          endchar
        </CharString>
        <CharString name="I">
          112 callgsubr
          endchar
        </CharString>
        <CharString name="Iacute">
          112 callgsubr
          -14 148 177 callsubr
        </CharString>
        <CharString name="Icircumflex">
          -190 73 hmoveto
          57 668 -57 hlineto
          59 148 280 callsubr
        </CharString>
        <CharString name="Idieresis">
          112 callgsubr
          -129 93 44 callsubr
        </CharString>
        <CharString name="Idotaccent">
          112 callgsubr
          -66 120 62 callgsubr
        </CharString>
        <CharString name="Igrave">
          112 callgsubr
          -102 148 81 callgsubr
        </CharString>
        <CharString name="Imacron">
          112 callgsubr
          -134 116 191 callsubr
          endchar
        </CharString>
        <CharString name="Iogonek">
          -190 130 668 rmoveto
          -57 -668 24 hlineto
          -28 callgsubr
          endchar
        </CharString>
        <CharString name="J">
          -189 73 668 rmoveto
          -473 vlineto
          -100 -13 -63 -22 -75 vhcurveto
          -30 -106 rlineto
          59 hlineto
          31 105 rlineto
          16 56 17 70 114 vvcurveto
          472 vlineto
          endchar
        </CharString>
        <CharString name="K">
          161 callgsubr
          endchar
        </CharString>
        <CharString name="L">
          -50 73 668 238 callgsubr
        </CharString>
        <CharString name="Lacute">
          -50 116 816 -34 callsubr
          -102 -148 238 callgsubr
        </CharString>
        <CharString name="Lcaron">
          -50 199 714 129 callgsubr
          17 -12 8 -13 vhcurveto
          -151 -46 238 callgsubr
        </CharString>
        <CharString name="Lslash">
          -50 131 51 rmoveto
          262 vlineto
          99 54 rlineto
          49 vlineto
          -99 -54 rlineto
          306 -57 -337 vlineto
          -56 -30 rlineto
          -49 vlineto
          56 30 rlineto
          -282 265 51 vlineto
          endchar
        </CharString>
        <CharString name="M">
          212 458 668 rmoveto
          -156 -432 -157 432 rlineto
          -72 -668 54 374 hlineto
          104 -5 94 0 vhcurveto
          146 -392 rlineto
          68 hlineto
          145 392 rlineto
          0 -4 -82 -117 vvcurveto
          -373 55 668 vlineto
          endchar
        </CharString>
        <CharString name="N">
          101 364 668 100 callgsubr
        </CharString>
        <CharString name="NULL">
          -393 endchar
        </CharString>
        <CharString name="Nacute">
          101 268 816 -34 callsubr
          37 94 callsubr
        </CharString>
        <CharString name="Ncaron">
          101 225 710 -42 callsubr
          188 94 callsubr
        </CharString>
        <CharString name="Ntilde">
          101 364 668 -51 callgsubr
          -92 138 -54 callsubr
        </CharString>
        <CharString name="O">
          77 callgsubr
          endchar
        </CharString>
        <CharString name="OE">
          270 244 51 rmoveto
          -76 -28 40 61 hvcurveto
          365 vlineto
          61 28 39 76 vhcurveto
          108 -566 hlineto
          281 566 rmoveto
          51 -390 vlineto
          -110 -50 -63 -87 hvcurveto
          -367 vlineto
          -87 48 -64 111 vhcurveto
          391 51 -224 260 196 51 -196 255 hlineto
          endchar
        </CharString>
        <CharString name="Oacute">
          58 242 816 -34 callsubr
          -238 -293 -79 callgsubr
          endchar
        </CharString>
        <CharString name="Ocircumflex">
          58 225 776 23 callgsubr
          141 -564 rmoveto
          -62 -29 -42 -76 -77 -29 42 62 vhcurveto
          376 vlineto
          62 29 42 77 262 callgsubr
          -268 -377 rmoveto
          -88 50 -67 113 112 368 callgsubr
          378 vlineto
          88 -50 67 -112 -113 -50 -67 -88 vhcurveto
          endchar
        </CharString>
        <CharString name="Odieresis">
          58 126 761 -84 callsubr
          -192 -238 -79 callgsubr
          endchar
        </CharString>
        <CharString name="Ograve">
          77 callgsubr
          -189 294 81 callgsubr
        </CharString>
        <CharString name="Ohungarumlaut">
          58 283 816 56 callsubr
          -197 -293 -79 callgsubr
          endchar
        </CharString>
        <CharString name="Omacron">
          58 120 784 191 callsubr
          -271 -261 -79 callgsubr
          endchar
        </CharString>
        <CharString name="Oslash">
          58 331 522 rmoveto
          -376 vlineto
          -62 -29 -42 -76 -41 -27 12 20 -17 vhcurveto
          190 455 rlineto
          -211 -383 rmoveto
          376 vlineto
          62 29 42 77 40 27 -12 -20 17 vhcurveto
          -190 -455 rlineto
          269 529 rmoveto
          -48 hlineto
          -8 -20 rlineto
          19 -26 -35 11 -46 hhcurveto
          -113 -50 -67 -88 hvcurveto
          -378 vlineto
          -34 7 -30 15 -25 vhcurveto
          -23 -56 rlineto
          48 hlineto
          8 20 rlineto
          -19 26 36 -11 46 hhcurveto
          112 50 67 88 hvcurveto
          378 vlineto
          34 -7 30 -15 25 vhcurveto
          endchar
        </CharString>
        <CharString name="Otilde">
          77 callgsubr
          -31 284 -54 callsubr
        </CharString>
        <CharString name="P">
          41 183 callgsubr
          236 96 vlineto
          109 51 63 87 hvcurveto
          132 vlineto
          87 -51 63 -109 vhcurveto
          102 -152 rmoveto
          -128 vlineto
          -62 -28 -39 -76 vhcurveto
          -94 330 94 hlineto
          76 28 -39 -62 hvcurveto
          endchar
        </CharString>
        <CharString name="Q">
          58 120 522 rmoveto
          62 29 42 77 262 callgsubr
          -376 vlineto
          -62 -29 -42 -76 -77 -29 42 62 vhcurveto
          313 -249 rmoveto
          -107 119 rlineto
          42 27 20 47 55 vvcurveto
          378 vlineto
          88 -50 67 -112 -113 -50 -67 -88 vhcurveto
          -378 361 callsubr
          113 17 16 2 3 14 vhcurveto
          87 -98 rlineto
          endchar
        </CharString>
        <CharString name="R">
          59 130 326 -3 callsubr
        </CharString>
        <CharString name="Racute">
          59 304 816 rmoveto
          -59 hlineto
          -37 -106 rlineto
          40 hlineto
          -118 -384 -3 callsubr
        </CharString>
        <CharString name="Rcaron">
          59 198 710 -42 callsubr
          -19 -490 -3 callsubr
        </CharString>
        <CharString name="S">
          -14 29 537 -68 callgsubr
          endchar
        </CharString>
        <CharString name="Sacute">
          -14 206 816 -34 callsubr
          -236 -279 -68 callgsubr
          endchar
        </CharString>
        <CharString name="Scaron">
          -14 172 710 -42 callsubr
          24 -430 rmoveto
          -42 23 -18 26 48 vvcurveto
          54 vlineto
          55 36 28 73 49 47 -7 -11 29 vhcurveto
          56 vlineto
          8 -27 -46 7 -52 hhcurveto
          -112 -55 -53 -83 hvcurveto
          -59 vlineto
          -67 30 -41 55 -30 vhcurveto
          116 -64 rlineto
          44 -23 13 -23 -46 vvcurveto
          -46 vlineto
          -52 -33 -38 -90 -49 -50 10 12 -31 vhcurveto
          -56 vlineto
          -10 27 51 -9 53 hhcurveto
          123 57 54 87 hvcurveto
          53 vlineto
          62 -26 40 -55 30 vhcurveto
          endchar
        </CharString>
        <CharString name="T">
          -53 330 668 140 callsubr
        </CharString>
        <CharString name="Tcaron">
          -53 144 710 -42 callsubr
          235 -148 140 callsubr
        </CharString>
        <CharString name="Thorn">
          32 338 276 rmoveto
          -62 -29 -37 -75 vhcurveto
          -94 315 94 hlineto
          75 29 -38 -62 hvcurveto
          -198 152 rmoveto
          124 -57 -668 57 124 95 vlineto
          110 50 63 88 hvcurveto
          118 vlineto
          88 360 callsubr
          endchar
        </CharString>
        <CharString name="U">
          52 callgsubr
          endchar
        </CharString>
        <CharString name="Uacute">
          68 248 816 -34 callsubr
          28 -148 -58 callsubr
          endchar
        </CharString>
        <CharString name="Ucircumflex">
          68 230 776 23 callgsubr
          140 -42 -58 callsubr
          endchar
        </CharString>
        <CharString name="Udieresis">
          68 130 761 -84 callsubr
          76 -93 -58 callsubr
          endchar
        </CharString>
        <CharString name="Ugrave">
          52 callgsubr
          -239 148 81 callgsubr
        </CharString>
        <CharString name="Uhungarumlaut">
          52 callgsubr
          -113 148 56 callsubr
          endchar
        </CharString>
        <CharString name="Umacron">
          52 callgsubr
          -270 116 191 callsubr
          endchar
        </CharString>
        <CharString name="Uogonek">
          68 335 668 rmoveto
          -522 vlineto
          -62 -28 -42 -77 -76 -29 42 62 vhcurveto
          522 -57 -523 361 callsubr
          112 13 12 1 2 11 vhcurveto
          -24 -25 -15 -33 -31 vvcurveto
          -44 27 -22 52 vhcurveto
          13 44 -12 hlineto
          -25 -13 9 27 31 17 34 29 24 hvcurveto
          54 25 24 51 62 vvcurveto
          523 vlineto
          endchar
        </CharString>
        <CharString name="Uring">
          68 160 763 7 callgsubr
          66 -95 -58 callsubr
          endchar
        </CharString>
        <CharString name="V">
          15 334 668 rmoveto
          -74 -339 -18 -90 -20 -97 -18 -83 rlinecurve
          -17 83 -20 96 -19 90 -74 340 rcurveline
          -60 hlineto
          149 -668 rlineto
          82 hlineto
          149 668 rlineto
          endchar
        </CharString>
        <CharString name="W">
          218 530 668 rmoveto
          -71 -429 rlineto
          -11 -70 -14 -106 0 vvcurveto
          0 -15 106 -11 70 vhcurveto
          -70 429 rlineto
          -64 hlineto
          -71 -428 rlineto
          -14 -89 -11 -89 0 vvcurveto
          0 -12 90 -14 87 vhcurveto
          -71 429 rlineto
          -58 hlineto
          114 -668 rlineto
          78 hlineto
          59 346 rlineto
          22 123 9 109 0 vvcurveto
          0 10 -106 23 -127 vhcurveto
          59 -345 rlineto
          77 hlineto
          114 668 rlineto
          endchar
        </CharString>
        <CharString name="X">
          -14 302 668 rmoveto
          -112 -267 -113 267 rlineto
          -63 hlineto
          145 -334 -145 -334 rlineto
          63 hlineto
          113 266 112 -266 rlineto
          63 hlineto
          -146 334 146 334 rlineto
          endchar
        </CharString>
        <CharString name="Y">
          4 333 668 45 callgsubr
          endchar
        </CharString>
        <CharString name="Yacute">
          4 333 668 45 callgsubr
          -179 148 177 callsubr
        </CharString>
        <CharString name="Ydieresis">
          4 93 761 -84 callsubr
          111 -93 45 callgsubr
          endchar
        </CharString>
        <CharString name="Z">
          198 callsubr
          endchar
        </CharString>
        <CharString name="Zacute">
          -18 203 816 -34 callsubr
          -227 -148 rmoveto
          -51 249 vlineto
          119 callsubr
          51 vlineto
          endchar
        </CharString>
        <CharString name="Zcaron">
          -18 167 710 -42 callsubr
          228 -148 rmoveto
          -311 -51 249 hlineto
          119 callsubr
          endchar
        </CharString>
        <CharString name="Zdotaccent">
          198 callsubr
          -196 120 62 callgsubr
        </CharString>
        <CharString name="a">
          -95 callgsubr
          endchar
        </CharString>
        <CharString name="aacute">
          -95 callgsubr
          -76 430 177 callsubr
        </CharString>
        <CharString name="abreve">
          -95 callgsubr
          -25 430 17 callsubr
          endchar
        </CharString>
        <CharString name="acircumflex">
          30 215 676 23 callgsubr
          119 -521 rmoveto
          -23 -26 -43 -21 -50 hhcurveto
          -67 -23 29 56 hvcurveto
          31 vlineto
          45 18 26 66 19 vhcurveto
          125 35 rlineto
          -239 210 rmoveto
          10 30 51 10 47 hhcurveto
          90 21 -31 -54 hvcurveto
          -92 vlineto
          -145 -41 rlineto
          -84 -24 -36 -45 -66 vvcurveto
          -32 vlineto
          -83 41 -52 98 68 29 20 24 29 vhcurveto
          -40 56 431 vlineto
          87 -47 52 -119 -51 -50 -9 -9 -28 vhcurveto
          endchar
        </CharString>
        <CharString name="acute">
          -43 164 716 177 callsubr
        </CharString>
        <CharString name="adieresis">
          -95 callgsubr
          -189 375 44 callsubr
        </CharString>
        <CharString name="ae">
          256 330 517 rmoveto
          34 -25 -46 19 -70 hhcurveto
          -51 -50 -9 -9 -28 hvcurveto
          -56 vlineto
          10 30 51 10 47 hhcurveto
          90 21 -31 -53 hvcurveto
          -93 vlineto
          -145 -41 rlineto
          -84 -24 -36 -45 -66 vvcurveto
          -32 vlineto
          -83 42 -52 99 61 61 20 30 35 vhcurveto
          -34 29 52 -17 74 294 callgsubr
          -93 -39 33 61 hvcurveto
          109 262 170 vlineto
          86 -46 68 -112 -63 -44 -28 -30 -23 vhcurveto
          -31 -433 rmoveto
          -23 -26 -43 -16 -50 hhcurveto
          -66 -24 29 56 hvcurveto
          31 vlineto
          45 18 26 66 19 vhcurveto
          125 35 rlineto
          263 134 rmoveto
          -119 -206 119 vlineto
          61 29 43 75 75 27 -43 -61 vhcurveto
          endchar
        </CharString>
        <CharString name="agrave">
          -95 callgsubr
          -169 430 81 callgsubr
        </CharString>
        <CharString name="amacron">
          -95 callgsubr
          -201 398 191 callsubr
          endchar
        </CharString>
        <CharString name="ampersand">
          56 335 146 rmoveto
          -62 -35 -42 -76 -76 -37 42 62 vhcurveto
          68 vlineto
          60 26 43 72 vhcurveto
          126 hlineto
          98 52 rmoveto
          -41 57 -57 -57 -128 hlineto
          -72 -23 42 61 hvcurveto
          53 vlineto
          53 25 40 100 48 46 -9 -11 31 vhcurveto
          57 vlineto
          9 -28 -46 9 -51 hhcurveto
          -130 -53 -61 -86 hvcurveto
          -54 vlineto
          -63 24 -46 54 -20 vhcurveto
          -54 -21 -25 -46 -61 vvcurveto
          -70 vlineto
          -87 59 -68 112 113 55 68 87 vhcurveto
          172 41 vlineto
          endchar
        </CharString>
        <CharString name="aogonek">
          30 299 89 rmoveto
          -23 -26 -43 -21 -50 hhcurveto
          -67 -23 29 56 hvcurveto
          31 vlineto
          45 18 26 66 19 vhcurveto
          125 35 rlineto
          -239 210 rmoveto
          10 30 51 10 47 hhcurveto
          90 21 -31 -54 hvcurveto
          -92 vlineto
          -145 -41 rlineto
          -84 -24 -36 -45 -66 vvcurveto
          -32 vlineto
          -83 41 -52 98 68 29 20 24 29 vhcurveto
          -40 22 vlineto
          -28 callgsubr
          1 431 hlineto
          87 -47 52 -119 -51 -50 -9 -9 -28 vhcurveto
          endchar
        </CharString>
        <CharString name="apostrophemod">
          215 callsubr
        </CharString>
        <CharString name="approxequal">
          44 346 315 rmoveto
          10 -58 -40 -12 -54 27 -79 37 rcurveline
          -65 30 -73 -23 -77 vvcurveto
          -12 3 -12 0 vhcurveto
          44 hlineto
          -10 58 44 10 50 -24 79 -37 rcurveline
          66 -31 72 23 77 vvcurveto
          13 -3 11 0 vhcurveto
          -44 138 279 callsubr
          3 -11 0 vhcurveto
          44 hlineto
          -10 58 44 10 50 -25 288 callgsubr
        </CharString>
        <CharString name="aring">
          -95 callgsubr
          -163 377 7 callgsubr
          endchar
        </CharString>
        <CharString name="asciicircum">
          -96 288 376 rmoveto
          -101 275 rlineto
          -81 hlineto
          -102 -275 rlineto
          54 hlineto
          88 247 88 -247 rlineto
          endchar
        </CharString>
        <CharString name="asciitilde">
          1 324 387 279 callsubr
          2 -11 0 vhcurveto
          45 hlineto
          -10 58 43 9 51 -24 288 callgsubr
        </CharString>
        <CharString name="asterisk">
          92 423 630 rmoveto
          -16 46 -98 -33 -25 -8 -16 -9 -9 -9 rlinecurve
          5 12 4 18 26 vvcurveto
          103 -48 -103 vlineto
          -26 4 -18 5 -11 vhcurveto
          -9 8 -16 10 -25 8 -98 31 rcurveline
          -14 -46 98 -32 24 -8 18 -1 13 1 rlinecurve
          -11 -7 -14 -12 -15 -21 -60 -83 rcurveline
          39 -28 60 84 15 21 7 16 3 12 rlinecurve
          3 -12 7 -17 16 -21 61 -83 rcurveline
          39 28 -62 84 -15 21 -14 12 -10 6 rlinecurve
          12 -1 19 2 25 8 rrcurveto
          endchar
        </CharString>
        <CharString name="at">
          454 508 123 rmoveto
          0 -35 -32 -65 -44 -28 18 49 vhcurveto
          13 vlineto
          53 28 12 47 14 vhcurveto
          97 29 rlineto
          4 -388 rmoveto
          48 -85 vlineto
          -224 -75 124 209 209 75 124 224 225 75 -114 -209 -158 -41 -45 -56 -48 -23 22 58 hvcurveto
          225 vlineto
          73 -38 51 -93 -42 -44 -7 -9 -36 vhcurveto
          -49 vlineto
          12 55 28 5 39 hhcurveto
          64 16 -31 -45 hvcurveto
          -55 vlineto
          -107 -33 rlineto
          -71 -22 -49 -27 -76 vvcurveto
          -12 vlineto
          -74 47 -40 78 68 38 23 11 14 vhcurveto
          -29 17 33 -19 53 hhcurveto
          95 56 69 182 239 -95 132 -258 -254 -98 -142 -239 -239 94 -142 258 hvcurveto
          endchar
        </CharString>
        <CharString name="atilde">
          -95 callgsubr
          -14 420 -54 callsubr
        </CharString>
        <CharString name="b">
          52 73 716 rmoveto
          -716 161 vlineto
          88 60 52 96 hvcurveto
          287 vlineto
          85 -52 48 -83 -46 -47 -16 -10 -25 vhcurveto
          174 vlineto
          195 -284 rmoveto
          -282 vlineto
          -68 -37 -30 -66 vhcurveto
          -91 435 hlineto
          14 36 38 13 39 hhcurveto
          51 30 -25 -57 hvcurveto
          endchar
        </CharString>
        <CharString name="backslash">
          -17 32 772 rmoveto
          269 -897 rlineto
          51 hlineto
          -269 897 rlineto
          endchar
        </CharString>
        <CharString name="bar">
          -188 79 791 rmoveto
          -935 47 935 vlineto
          endchar
        </CharString>
        <CharString name="braceleft">
          -52 191 651 rmoveto
          42 22 29 66 vhcurveto
          10 49 -11 hlineto
          -89 -50 -46 -75 hvcurveto
          -230 vlineto
          -43 -26 -30 -51 vhcurveto
          -2 -48 2 hlineto
          51 26 -29 -44 hvcurveto
          -230 vlineto
          -75 50 -46 89 vhcurveto
          11 49 -10 hlineto
          -66 -22 29 42 hvcurveto
          210 vlineto
          70 -18 41 -67 7 vhcurveto
          67 8 18 41 70 vvcurveto
          endchar
        </CharString>
        <CharString name="braceright">
          -52 279 347 rmoveto
          -52 -26 30 43 hvcurveto
          230 vlineto
          75 -49 46 -89 vhcurveto
          -12 -49 10 hlineto
          67 22 -29 -42 hvcurveto
          -209 vlineto
          -70 17 -41 68 -8 vhcurveto
          -68 -7 -17 -41 -70 vvcurveto
          -210 vlineto
          -42 -22 -29 -67 vhcurveto
          -10 -49 12 hlineto
          89 49 46 75 hvcurveto
          230 vlineto
          44 26 29 52 vhcurveto
          2 48 hlineto
          endchar
        </CharString>
        <CharString name="bracketleft">
          -110 131 -79 rmoveto
          805 124 46 -174 -897 174 46 vlineto
          endchar
        </CharString>
        <CharString name="bracketright">
          -110 27 772 rmoveto
          -46 124 -805 -124 -46 175 897 vlineto
          endchar
        </CharString>
        <CharString name="breve">
          -43 237 716 17 callsubr
          endchar
        </CharString>
        <CharString name="brokenbar">
          -188 79 791 rmoveto
          -376 47 376 vlineto
          -47 -559 rmoveto
          -376 47 376 vlineto
          endchar
        </CharString>
        <CharString name="bullet">
          -121 68 323 rmoveto
          -39 18 -28 50 49 19 28 39 39 -19 29 -49 -50 -18 -29 -39 vhcurveto
          endchar
        </CharString>
        <CharString name="c">
          -23 63 432 rmoveto
          -300 vlineto
          -86 45 -51 118 45 34 7 7 26 vhcurveto
          43 callgsubr
          endchar
        </CharString>
        <CharString name="cacute">
          -23 242 716 -34 callsubr
          -238 -284 rmoveto
          -300 vlineto
          -86 45 -51 118 45 34 7 7 26 vhcurveto
          43 callgsubr
          endchar
        </CharString>
        <CharString name="caron">
          -43 210 716 rmoveto
          -35 -66 -35 66 rlineto
          -39 hlineto
          49 -106 rlineto
          50 hlineto
          49 106 rlineto
          endchar
        </CharString>
        <CharString name="ccaron">
          -23 194 610 -42 callsubr
          -25 -285 rmoveto
          54 19 32 89 38 36 -5 -8 27 vhcurveto
          53 vlineto
          7 -24 -35 6 -44 hhcurveto
          -118 -45 -51 -87 hvcurveto
          -300 vlineto
          -86 45 -51 118 45 34 7 7 26 vhcurveto
          54 vlineto
          -9 -26 -36 -6 -41 hhcurveto
          -89 -19 31 54 hvcurveto
          endchar
        </CharString>
        <CharString name="ccedilla">
          -23 226 -5 rmoveto
          45 34 7 7 26 hvcurveto
          43 callgsubr
          -300 vlineto
          -77 36 -49 91 -9 vhcurveto
          -13 -65 64 callgsubr
          8 35 rlineto
          endchar
        </CharString>
        <CharString name="cedilla">
          -43 150 6 rmoveto
          -15 -74 64 callgsubr
          10 46 rlineto
          endchar
        </CharString>
        <CharString name="cent">
          10 340 63 rmoveto
          -9 -26 -36 -6 -41 hhcurveto
          -89 -19 31 54 hvcurveto
          298 vlineto
          54 19 32 89 38 36 -5 -8 27 vhcurveto
          53 vlineto
          -19 6 -27 5 -33 1 rrcurveto
          84 -52 -84 vlineto
          -97 -8 -38 -49 -80 vvcurveto
          -300 vlineto
          -79 38 -50 98 -7 vhcurveto
          -75 52 75 vlineto
          33 2 26 5 21 6 rrcurveto
          endchar
        </CharString>
        <CharString name="circumflex">
          -43 249 610 rmoveto
          -49 106 rlineto
          -50 hlineto
          -49 -106 rlineto
          39 hlineto
          35 66 35 -66 rlineto
          endchar
        </CharString>
        <CharString name="colon">
          -200 31 385 268 callsubr
          -350 vmoveto
          -25 9 162 callsubr
          -9 -16 -24 vhcurveto
          endchar
        </CharString>
        <CharString name="comma">
          -260 253 callsubr
          endchar
        </CharString>
        <CharString name="copyright">
          290 49 322 rmoveto
          -187 62 -135 232 227 64 138 184 190 -51 134 -240 -238 -56 -137 -187 vhcurveto
          177 54 rmoveto
          -107 vlineto
          -77 32 -49 98 25 29 4 3 21 vhcurveto
          51 vlineto
          -6 -21 -18 -4 -35 hhcurveto
          -75 -5 34 45 hvcurveto
          106 vlineto
          44 5 35 75 34 18 -3 -7 21 vhcurveto
          50 vlineto
          4 -20 -29 3 -25 hhcurveto
          -98 -32 -48 -78 hvcurveto
          357 -54 rmoveto
          -157 -37 -117 -203 -208 -35 114 160 160 32 116 211 210 30 -114 -162 vhcurveto
          endchar
        </CharString>
        <CharString name="currency">
          67 137 370 rmoveto
          62 17 34 76 76 17 -34 -62 vhcurveto
          -72 vlineto
          -62 -17 -34 -76 -76 -17 34 62 vhcurveto
          243 73 rmoveto
          28 -4 25 -9 21 vhcurveto
          44 42 -38 39 -39 -37 rlineto
          17 -24 -33 10 -47 hhcurveto
          -46 -34 -10 -18 -23 hvcurveto
          -39 38 -39 -39 44 -43 rlineto
          -8 -21 -4 -24 -28 vvcurveto
          -74 vlineto
          -28 4 -24 8 -21 vhcurveto
          -44 -43 39 -39 39 38 rlineto
          -18 23 34 -10 46 hhcurveto
          47 33 10 17 24 hvcurveto
          39 -37 38 39 -44 42 rlineto
          9 21 4 25 28 vvcurveto
          endchar
        </CharString>
        <CharString name="d">
          51 87 callsubr
          endchar
        </CharString>
        <CharString name="dagger">
          228 callgsubr
          0 -5 -66 -63 vvcurveto
          -505 51 505 vlineto
          63 -5 66 0 vhcurveto
          0 47 -5 53 vhcurveto
          46 vlineto
          -53 -47 -4 0 hvcurveto
          0 5 67 60 vvcurveto
          endchar
        </CharString>
        <CharString name="daggerdbl">
          228 callgsubr
          -2 -144 0 -182 2 -143 rrcurveto
          0 -41 4 -59 vhcurveto
          -46 vlineto
          59 41 5 0 hvcurveto
          0 -5 -52 -76 vvcurveto
          51 hlineto
          76 -5 52 0 vhcurveto
          334 callsubr
          2 143 0 182 -2 144 rrcurveto
          334 callsubr
          0 5 67 60 vvcurveto
          endchar
        </CharString>
        <CharString name="danda">
          -114 149 hmoveto
          52 646 -52 hlineto
          endchar
        </CharString>
        <CharString name="dcaron">
          54 87 callsubr
          125 202 155 callsubr
          33 hlineto
          13 20 32 51 20 vvcurveto
          17 -12 8 -14 vhcurveto
          endchar
        </CharString>
        <CharString name="dcroat">
          52 314 87 rmoveto
          -19 -19 -35 -19 -50 hhcurveto
          -59 -31 30 63 hvcurveto
          278 vlineto
          62 37 30 67 vhcurveto
          90 hlineto
          98 157 rmoveto
          -40 47 -58 -47 -123 -43 123 -61 -102 hlineto
          -86 -63 -50 -95 hvcurveto
          -279 vlineto
          -92 48 -52 95 57 31 18 17 21 vhcurveto
          -32 57 626 40 vlineto
          endchar
        </CharString>
        <CharString name="degree">
          -34 54 -12 callsubr
          -77 32 -60 96 96 33 60 77 78 -33 61 -96 -96 -32 -61 -78 vhcurveto
          211 -1 rmoveto
          -51 -12 -41 -71 -70 -12 41 51 52 12 41 70 71 12 -41 -52 vhcurveto
          endchar
        </CharString>
        <CharString name="dieresis">
          -43 75 661 44 callsubr
        </CharString>
        <CharString name="divide">
          34 40 345 rmoveto
          -47 347 47 vlineto
          -207 -196 rmoveto
          83 callgsubr
          343 vmoveto
          83 callgsubr
          endchar
        </CharString>
        <CharString name="dollar">
          -14 147 386 rmoveto
          -42 23 -18 26 48 vvcurveto
          54 vlineto
          55 36 28 73 49 47 -7 -11 29 vhcurveto
          56 vlineto
          -24 7 -38 6 -45 2 rrcurveto
          61 -52 -63 vlineto
          -89 -10 -44 -50 -74 vvcurveto
          -59 vlineto
          -67 30 -41 55 -30 vhcurveto
          116 -64 rlineto
          44 -23 13 -23 -46 vvcurveto
          -46 vlineto
          -52 -33 -38 -90 -49 -50 10 12 -31 vhcurveto
          -56 vlineto
          25 -9 45 -9 48 -1 rrcurveto
          -73 52 75 vlineto
          96 11 45 51 77 vvcurveto
          53 vlineto
          62 -26 40 -55 30 vhcurveto
          endchar
        </CharString>
        <CharString name="dotaccent">
          -43 138 688 62 callgsubr
        </CharString>
        <CharString name="dotlessi">
          111 callsubr
          endchar
        </CharString>
        <CharString name="dottedcircle">
          267 139 517 rmoveto
          -26 18 -19 26 26 18 19 26 25 -18 19 -26 -26 -18 -19 -25 vhcurveto
          -82 -110 rmoveto
          -25 20 -19 26 24 20 19 25 25 -20 19 -24 -26 -20 -19 -25 vhcurveto
          -13 -126 rmoveto
          -25 19 -18 25 26 18 18 362 callgsubr
          52 -116 rmoveto
          -26 18 -18 26 25 19 18 26 25 -19 19 -25 -26 -18 -19 -25 vhcurveto
          101 -75 rmoveto
          -26 19 -20 26 25 19 20 26 24 -19 20 -25 -26 -19 -20 -24 vhcurveto
          127 -16 rmoveto
          -26 18 -18 26 26 19 18 26 26 -19 18 -26 -26 -18 -18 -26 vhcurveto
          121 53 rmoveto
          -26 19 -18 25 25 20 18 26 25 -20 19 -25 -25 -19 -19 -25 vhcurveto
          73 98 rmoveto
          -25 19 -19 26 24 19 19 25 26 -19 19 -24 -26 -19 -19 -26 vhcurveto
          10 134 rmoveto
          -26 18 -18 26 25 19 18 26 26 -19 18 -25 -26 -18 -18 -26 vhcurveto
          -50 118 rmoveto
          -25 19 -19 25 26 18 19 362 callgsubr
          -95 68 rmoveto
          -24 19 -20 26 25 18 20 24 26 -18 19 -25 -26 -19 -19 -26 vhcurveto
          -126 15 rmoveto
          -26 18 -18 26 26 18 18 26 26 -18 18 -26 -26 -18 -18 -26 vhcurveto
          endchar
        </CharString>
        <CharString name="doubledanda">
          54 123 hmoveto
          53 646 -53 hlineto
          194 -646 rmoveto
          53 646 -53 hlineto
          endchar
        </CharString>
        <CharString name="dvA">
          161 425 -12 callsubr
          -387 -126 vlineto
          -89 callgsubr
          99 46 vlineto
          endchar
        </CharString>
        <CharString name="dvAA">
          395 810 -12 callsubr
          -357 -54 callgsubr
          vlineto
          endchar
        </CharString>
        <CharString name="dvAI">
          31 357 -12 callsubr
          -159 229 rlineto
          -59 hlineto
          164 -229 rlineto
          -325 -46 94 -483 hlineto
          -78 51 -44 99 52 47 10 10 23 vhcurveto
          48 vlineto
          -8 -24 -48 -11 -49 hhcurveto
          -71 -27 29 45 hvcurveto
          482 176 callsubr
          vlineto
          endchar
        </CharString>
        <CharString name="dvAU">
          396 709 -12 callsubr
          -47 158 rlineto
          -22 callgsubr
          -115 -54 callgsubr
          46 vlineto
          endchar
        </CharString>
        <CharString name="dvAbbreviationsign">
          -34 54 334 rmoveto
          -77 32 -60 96 96 33 60 77 78 -33 60 -96 -96 -32 -60 -78 vhcurveto
          46 -1 rmoveto
          52 12 41 70 71 12 -41 -52 -51 -12 -40 -71 -70 -12 40 51 vhcurveto
          endchar
        </CharString>
        <CharString name="dvAcandra">
          161 425 259 rmoveto
          -126 hlineto
          -89 callgsubr
          99 46 -151 vlineto
          129 180 27 callgsubr
        </CharString>
        <CharString name="dvAnusvara">
          -393 -140 763 -20 callgsubr
          endchar
        </CharString>
        <CharString name="dvAnusvara.amI">
          -393 15 745 -20 callgsubr
          endchar
        </CharString>
        <CharString name="dvAvagraha">
          27 381 202 rmoveto
          61 -18 42 -64 34 vhcurveto
          -136 74 rlineto
          -44 23 -9 30 38 vvcurveto
          26 vlineto
          38 8 29 81 vhcurveto
          159 49 -160 hlineto
          -106 -34 -43 -73 hvcurveto
          -27 vlineto
          -59 20 -44 62 -33 vhcurveto
          136 -73 rlineto
          44 -24 9 -29 -39 vvcurveto
          -72 vlineto
          -48 -16 -38 -91 vhcurveto
          -2 hlineto
          -91 -16 38 48 hvcurveto
          69 -52 -69 vlineto
          -82 43 -53 115 vhcurveto
          4 hlineto
          115 43 53 82 hvcurveto
          endchar
        </CharString>
        <CharString name="dvB">
          -179 -22 -12 callsubr
          -46 361 46 vlineto
          -291 -263 rmoveto
          -189 vlineto
          -78 47 -44 98 103 41 44 78 vhcurveto
          189 vlineto
          79 -41 43 -103 -99 -46 -44 -78 vhcurveto
          239 -175 rmoveto
          -176 217 rlineto
          19 13 25 14 44 hhcurveto
          71 23 -34 -42 hvcurveto
          -187 -7 rmoveto
          178 -220 rlineto
          -23 -12 -24 -12 -49 hhcurveto
          -73 -20 29 45 hvcurveto
          endchar
        </CharString>
        <CharString name="dvBA">
          19 100 343 -62 callgsubr
          -308 202 rmoveto
          -46 308 -109 vlineto
          4 -10 -31 10 -47 hhcurveto
          -98 -52 -45 -79 hvcurveto
          -184 vlineto
          75 callgsubr
          46 vlineto
          endchar
        </CharString>
        <CharString name="dvBH">
          6 258 242 callsubr
          226 46 rmoveto
          -174 141 1 callsubr
          -140 -79 vlineto
          41 callsubr
          174 vlineto
          endchar
        </CharString>
        <CharString name="dvBHA">
          184 258 242 callsubr
          46 vmoveto
          -79 hlineto
          41 callsubr
          138 -344 261 callgsubr
          -150 -26 callgsubr
          endchar
        </CharString>
        <CharString name="dvBH_LA">
          608 258 242 callsubr
          112 302 rmoveto
          -46 501 -138 vlineto
          10 -25 -21 5 308 callgsubr
          -76 -41 -33 -54 -12 hvcurveto
          -135 141 1 callsubr
          -140 -79 vlineto
          41 callsubr
          131 -195 vlineto
          -93 46 -4 callgsubr
          22 33 65 27 336 callgsubr
          vlineto
          endchar
        </CharString>
        <CharString name="dvBH_NA">
          561 637 178 -99 callgsubr
          63 hlineto
          0 12 -28 -46 vvcurveto
          -379 -178 -26 callsubr
          112 302 rmoveto
          -46 454 327 callsubr
          vlineto
          -73 -42 -28 -59 -9 hvcurveto
          -128 141 hlineto
          305 callgsubr
          -40 -43 -77 -27 4 -28 0 vhcurveto
          53 hlineto
          0 -4 29 25 121 callgsubr
          -140 -79 vlineto
          41 callsubr
          126 -166 vlineto
          -77 43 -39 83 84 43 39 77 vhcurveto
          179 vlineto
          48 -13 25 0 vhcurveto
          148 -430 211 callgsubr
          46 hlineto
          endchar
        </CharString>
        <CharString name="dvBH_R">
          14 490 419 rmoveto
          -173 112 hlineto
          290 callgsubr
          -89 -39 -43 -77 -24 5 -30 147 callgsubr
          26 27 vvcurveto
          43 12 29 64 63 13 -28 -44 vhcurveto
          -111 -79 vlineto
          -93 -38 -37 -76 hvcurveto
          316 callsubr
          174 vlineto
          -104 vmoveto
          -299 -314 rlineto
          71 hlineto
          107 113 41 44 56 68 24 33 rlinecurve
          -225 35 101 callsubr
          endchar
        </CharString>
        <CharString name="dvBH_RA">
          193 265 248 101 callsubr
          192 -138 rmoveto
          96 callgsubr
          -151 42 callsubr
          -93 -38 -37 -76 hvcurveto
          316 callsubr
          141 vlineto
          endchar
        </CharString>
        <CharString name="dvBH_R_YA">
          488 752 251 rmoveto
          -80 -2 -29 -37 -97 hhcurveto
          -98 -29 39 83 hvcurveto
          85 vlineto
          81 1 52 33 84 vvcurveto
          68 vlineto
          42 -14 22 -16 9 vhcurveto
          152 hlineto
          -494 -352 rmoveto
          -44 -11 -24 -68 -67 285 callgsubr
          43 vlineto
          44 11 24 67 vhcurveto
          79 hlineto
          112 287 rmoveto
          -46 127 vlineto
          63 18 -29 -44 hvcurveto
          -66 vlineto
          -58 -26 -15 -76 -1 vhcurveto
          12 -12 -21 6 -31 hhcurveto
          -102 126 hlineto
          305 callgsubr
          341 callsubr
          1 -41 rlineto
          52 40 hlineto
          122 callsubr
          -125 -79 vlineto
          -92 -38 -37 -76 hvcurveto
          -45 13 callsubr
          112 95 vlineto
          17 16 -2 -9 7 hvcurveto
          -94 vlineto
          -12 1 -10 1 -11 vhcurveto
          -254 -266 rlineto
          71 hlineto
          107 113 28 29 33 40 27 33 rlinecurve
          -66 27 63 -19 75 hhcurveto
          71 38 18 26 19 hvcurveto
          -129 256 callgsubr
        </CharString>
        <CharString name="dvBH_VA">
          419 683 134 rmoveto
          -98 callsubr
          -425 -266 -26 callsubr
          115 302 rmoveto
          -46 310 207 callsubr
          -91 -50 -45 -70 -6 hvcurveto
          -129 141 1 callsubr
          -140 -79 vlineto
          41 callsubr
          129 -144 180 callgsubr
          vlineto
          endchar
        </CharString>
        <CharString name="dvBH_YA">
          488 752 145 rmoveto
          -5 -26 -41 -6 -48 hhcurveto
          -98 -42 -31 callgsubr
          -494 333 callgsubr
          112 vlineto
          43 11 304 callsubr
          112 288 189 callgsubr
          -57 -26 -16 -76 -1 vhcurveto
          14 -11 -22 8 -34 hhcurveto
          -99 127 1 callsubr
          -126 300 callgsubr
          -113 13 callsubr
          181 93 vlineto
          20 16 -4 -13 6 hvcurveto
          -87 vlineto
          197 callgsubr
          100 84 callgsubr
          46 vlineto
          endchar
        </CharString>
        <CharString name="dvB_BA">
          258 339 343 rmoveto
          186 -144 rlineto
          -66 vlineto
          -4 -10 -30 -9 -47 hhcurveto
          -74 369 callsubr
          -52 -3 rmoveto
          -47 -23 182 callsubr
          148 vlineto
          187 -143 rlineto
          238 50 rmoveto
          -185 144 rlineto
          37 4 27 28 67 hhcurveto
          47 30 -10 -4 10 hvcurveto
          147 202 rmoveto
          -694 -46 547 208 callgsubr
          -98 -52 -45 -79 hvcurveto
          -132 -52 callgsubr
          99 60 39 15 29 22 vhcurveto
          -29 24 42 -15 56 hhcurveto
          48 30 10 4 10 hvcurveto
          -86 49 -37 callgsubr
        </CharString>
        <CharString name="dvB_BHA">
          422 234 -12 callsubr
          -256 -46 256 hlineto
          262 -422 120 callgsubr
          98 270 callsubr
          -396 -2 122 callgsubr
          -24 -27 -70 -73 -20 29 45 vhcurveto
          585 452 rmoveto
          -256 -137 141 vlineto
          290 callgsubr
          -89 -39 -43 -77 -25 4 -30 165 callgsubr
          -4 32 22 vvcurveto
          43 13 85 callgsubr
          -140 300 callgsubr
          -27 -52 callgsubr
          98 52 37 12 22 23 vhcurveto
          -29 19 36 -15 57 hhcurveto
          93 38 39 76 hvcurveto
          167 137 -344 256 callgsubr
        </CharString>
        <CharString name="dvB_BH_RA">
          424 240 -12 callsubr
          -261 -46 261 hlineto
          256 -352 101 callsubr
          -396 -31 122 callgsubr
          -24 -27 -70 -73 -20 29 45 vhcurveto
          588 452 rmoveto
          42 callsubr
          -93 -38 -37 -76 hvcurveto
          -56 160 callgsubr
          81 43 28 51 14 vhcurveto
          -13 20 29 -6 37 hhcurveto
          92 38 39 76 hvcurveto
          126 141 -138 vlineto
          96 callgsubr
          vlineto
          endchar
        </CharString>
        <CharString name="dvB_DA">
          247 100 342 82 callsubr
          463 261 325 callsubr
          -684 -46 533 132 callgsubr
          -134 -52 callgsubr
          99 62 40 17 31 21 vhcurveto
          -29 25 42 -15 55 hhcurveto
          39 24 3 6 28 hvcurveto
          -94 285 callsubr
          -98 vlineto
          -7 -30 -21 359 callsubr
          31 49 hvcurveto
          179 148 callsubr
          endchar
        </CharString>
        <CharString name="dvB_DHA">
          316 100 342 rmoveto
          186 -142 1 -11 rlineto
          -44 -2 -25 -25 -67 hhcurveto
          -73 -20 29 45 hvcurveto
          480 452 137 callsubr
          -481 -46 323 hlineto
          36 callgsubr
          -14 160 callgsubr
          61 39 16 29 22 vhcurveto
          -37 31 54 -17 65 hhcurveto
          50 35 6 9 30 hvcurveto
          -78 256 callgsubr
        </CharString>
        <CharString name="dvB_DH_VA">
          547 811 134 rmoveto
          -98 callsubr
          -711 -102 280 callgsubr
          451 452 -50 callgsubr
          -452 -46 323 155 callgsubr
          -33 161 callsubr
          71 41 22 38 19 vhcurveto
          -31 32 50 -14 60 hhcurveto
          43 54 10 10 39 hvcurveto
          -23 25 37 -12 50 20 callsubr
          98 46 vlineto
          endchar
        </CharString>
        <CharString name="dvB_JA">
          454 100 375 -23 callsubr
        </CharString>
        <CharString name="dvB_JHA">
          527 790 310 rmoveto
          -276 hlineto
          -69 189 callsubr
          140 143 133 hlineto
          -690 -259 131 callgsubr
          -48 -24 -27 -70 -73 -20 30 45 vhcurveto
          841 453 rmoveto
          -963 -46 627 -95 -88 hlineto
          -96 251 callsubr
          -7 vlineto
          -29 6 -24 13 -18 vhcurveto
          -107 -63 hlineto
          -187 144 rlineto
          40 3 22 25 68 hhcurveto
          30 26 -5 0 hvcurveto
          48 vlineto
          0 -28 5 -29 48 callgsubr
          47 -44 98 103 40 45 76 vhcurveto
          71 176 0 4 vlineto
          8 91 callgsubr
        </CharString>
        <CharString name="dvB_J_YA">
          733 997 339 callsubr
          -6 -49 hhcurveto
          -97 -43 39 83 hvcurveto
          100 340 callsubr
          54 38 callgsubr
          -897 -229 rmoveto
          -4 170 -214 4 vhcurveto
          -9 -21 -22 -12 -45 1 rrcurveto
          -70 -28 36 42 hvcurveto
          187 13 rmoveto
          4 -167 210 -4 vhcurveto
          10 19 21 12 42 -1 rrcurveto
          67 31 -39 -39 hvcurveto
          861 268 rmoveto
          -1132 -46 799 hlineto
          -40 callgsubr
          -51 vlineto
          -54 -22 -16 -63 -3 vhcurveto
          73 -3 -45 19 -68 hhcurveto
          -217 -47 108 hlineto
          -40 callgsubr
          -180 vlineto
          -49 -25 -33 -70 -26 -46 9 7 -35 vhcurveto
          12 16 6 22 27 vvcurveto
          -8 -4 177 -10 vhcurveto
          -11 69 -42 44 -92 8 rrcurveto
          -88 -42 -31 -70 7 4 -175 12 hvcurveto
          10 -69 46 -44 88 -9 rrcurveto
          29 23 3 6 18 hvcurveto
          -1 -12 rlineto
          -8 26 77 -17 46 59 callsubr
          182 vlineto
          48 -9 25 0 vhcurveto
          42 hlineto
          58 25 -6 -48 hvcurveto
          -141 vlineto
          -136 93 -33 99 49 42 255 callgsubr
        </CharString>
        <CharString name="dvB_JxA">
          454 300 11 rmoveto
          -27 -10 -15 -21 -21 10 151 callsubr
          hvcurveto
          -200 364 -23 callsubr
        </CharString>
        <CharString name="dvB_LA">
          454 100 342 82 callsubr
          769 452 rmoveto
          -891 -46 740 -138 hlineto
          -18 callgsubr
          -103 -52 callgsubr
          99 44 32 8 16 23 vhcurveto
          -61 16 48 -35 89 -39 callgsubr
        </CharString>
        <CharString name="dvB_L_YA">
          745 1009 339 callsubr
          -6 -49 hhcurveto
          -97 -43 -31 callgsubr
          -909 -258 280 callgsubr
          1060 452 rmoveto
          -1182 -46 849 hlineto
          -40 callgsubr
          -71 vlineto
          -53 -22 -17 -62 -3 vhcurveto
          59 -10 -40 35 -76 hhcurveto
          -48 -30 -16 -28 -21 hvcurveto
          27 -19 -36 17 -52 hhcurveto
          -92 -41 -48 -77 hvcurveto
          -102 161 callsubr
          44 32 8 16 23 vhcurveto
          -61 16 47 -35 89 hhcurveto
          60 47 -59 hlineto
          -88 -19 44 58 hvcurveto
          203 vlineto
          43 14 34 67 68 14 39 callsubr
          13 31 59 69 8 -31 -46 vhcurveto
          -98 vlineto
          197 callgsubr
          100 313 callsubr
        </CharString>
        <CharString name="dvB_NA">
          410 487 178 -103 callgsubr
          -387 -15 rmoveto
          185 -141 rlineto
          -6 vlineto
          -47 -23 -27 -69 -73 -20 29 45 vhcurveto
          185 57 rmoveto
          -185 140 rlineto
          40 3 22 25 68 hhcurveto
          69 23 -25 -49 hvcurveto
          540 264 rmoveto
          -847 -46 696 327 callsubr
          hlineto
          -40 -31 -9 -17 -22 hvcurveto
          34 -20 -40 19 -67 hhcurveto
          -98 -46 -44 -78 hvcurveto
          -188 vlineto
          -78 46 -44 98 53 36 12 22 23 vhcurveto
          -29 20 37 -15 51 hhcurveto
          83 43 39 77 hvcurveto
          -71 callgsubr
        </CharString>
        <CharString name="dvB_R">
          -175 105 344 rmoveto
          186 -135 rlineto
          -5 vlineto
          -48 -23 -26 -70 -73 -20 29 45 vhcurveto
          186 54 rmoveto
          -186 135 rlineto
          39 3 22 26 68 hhcurveto
          70 23 -26 -49 hvcurveto
          -238 -179 rmoveto
          -77 43 -46 109 2 vhcurveto
          -160 -148 rlineto
          73 hlineto
          155 145 rlineto
          47 44 22 22 58 vvcurveto
          179 vlineto
          79 -42 43 -102 -100 -45 -44 -78 vhcurveto
          -75 263 rmoveto
          -46 384 46 vlineto
          endchar
        </CharString>
        <CharString name="dvB_RA">
          23 105 134 callsubr
          -312 202 rmoveto
          -46 312 -109 vlineto
          4 -9 -31 10 -48 hhcurveto
          -97 -52 -45 -79 hvcurveto
          -159 vlineto
          -79 53 -44 97 vhcurveto
          3 hlineto
          -164 -154 rlineto
          71 hlineto
          174 166 3 1 rlineto
          -112 49 184 callgsubr
        </CharString>
        <CharString name="dvB_SA">
          425 689 -19 callsubr
          -589 257 callsubr
          739 452 rmoveto
          -861 -46 515 hlineto
          -93 callsubr
          -201 vlineto
          -187 143 rlineto
          40 3 22 26 68 hhcurveto
          17 16 -3 0 hvcurveto
          47 vlineto
          0 -16 3 -18 48 callgsubr
          47 -44 99 43 32 8 15 23 vhcurveto
          -68 17 60 -32 83 hhcurveto
          58 141 callgsubr
          hvcurveto
          -97 callsubr
          50 36 126 callsubr
          168 -294 324 callsubr
        </CharString>
        <CharString name="dvB_SHA">
          418 232 -12 callsubr
          -254 -46 254 hlineto
          -132 257 callsubr
          243 294 rmoveto
          1 -3 18 18 195 callsubr
          71 2 callsubr
          -71 -33 -33 7 8 -25 vhcurveto
          83 -52 -152 -1 -3 -52 callgsubr
          99 44 32 8 16 23 vhcurveto
          -65 19 62 -35 83 hhcurveto
          184 callsubr
          hvcurveto
          -72 callgsubr
          144 vlineto
          9 callgsubr
          -20 -1 vvcurveto
          391 158 rmoveto
          -646 256 callgsubr
        </CharString>
        <CharString name="dvB_TA">
          269 100 342 82 callsubr
          583 452 rmoveto
          -705 -46 554 -110 hlineto
          260 callgsubr
          -129 -52 callgsubr
          99 41 31 7 14 23 vhcurveto
          -58 8 40 -36 75 hhcurveto
          -65 callgsubr
          vlineto
          endchar
        </CharString>
        <CharString name="dvB_VA">
          267 531 134 rmoveto
          -98 callsubr
          -431 -102 122 callgsubr
          -24 -27 -69 -74 -20 29 45 vhcurveto
          582 452 rmoveto
          -704 -46 553 -108 hlineto
          66 callgsubr
          -129 -52 callgsubr
          99 60 38 16 28 22 vhcurveto
          -29 24 40 -15 56 20 callsubr
          99 vlineto
          endchar
        </CharString>
        <CharString name="dvB_YA">
          330 593 -102 callgsubr
          -493 257 callsubr
          644 452 rmoveto
          -766 -46 433 159 callgsubr
          -133 hlineto
          -50 callsubr
          99 72 42 23 40 18 vhcurveto
          -38 36 57 -12 59 -13 callgsubr
        </CharString>
        <CharString name="dvC">
          316 callgsubr
          12 -472 rmoveto
          -10 -32 -43 -7 -34 hhcurveto
          -70 -24 116 callsubr
          -259 -47 90 hlineto
          0 -9 209 callgsubr
          44 -48 100 37 49 9 8 25 vhcurveto
          endchar
        </CharString>
        <CharString name="dvCA">
          65 145 342 332 callsubr
          91 hlineto
          0 -10 209 callgsubr
          44 -48 100 37 30 6 9 24 358 callgsubr
          -501 -46 350 -474 vlineto
          -11 -31 297 callsubr
          endchar
        </CharString>
        <CharString name="dvCH">
          105 317 494 rmoveto
          -33 1 -30 -10 0 vvcurveto
          -50 365 callgsubr
          -204 153 callsubr
          323 46 -541 150 callgsubr
          206 vlineto
          64 -28 56 -96 vhcurveto
          endchar
        </CharString>
        <CharString name="dvCHA">
          106 69 395 rmoveto
          58 callgsubr
          156 46 -542 -46 101 72 callsubr
          endchar
        </CharString>
        <CharString name="dvCH_R">
          106 231 -155 83 callsubr
          108 323 -27 callsubr
        </CharString>
        <CharString name="dvCH_RA">
          106 388 168 -27 callsubr
        </CharString>
        <CharString name="dvCH_R_YA">
          596 860 115 callsubr
          1 vlineto
          80 53 34 82 hvcurveto
          10 vlineto
          77 -40 42 -88 vhcurveto
          -246 105 496 hlineto
          -472 -432 -73 callsubr
          623 274 rmoveto
          -1033 -46 101 hlineto
          0 -10 -24 -49 vvcurveto
          -132 vlineto
          59 callgsubr
          -88 40 -41 99 -10 vhcurveto
          -86 -157 rlineto
          56 hlineto
          82 155 rlineto
          2 hlineto
          82 -155 rlineto
          56 hlineto
          -86 158 rlineto
          94 10 38 41 89 vvcurveto
          206 vlineto
          29 -5 24 -11 19 vhcurveto
          186 hlineto
          63 13 -28 -43 hvcurveto
          -8 vlineto
          -57 -28 -14 -80 vhcurveto
          -25 -46 99 callgsubr
        </CharString>
        <CharString name="dvCH_YA">
          576 840 115 callsubr
          2 vlineto
          80 53 33 83 hvcurveto
          8 vlineto
          77 -40 42 -88 vhcurveto
          -184 hlineto
          17 -19 -29 10 -41 hhcurveto
          -33 1 -30 -10 0 vvcurveto
          -49 365 callgsubr
          -232 153 callsubr
          644 185 callgsubr
          -1013 150 callgsubr
          234 vlineto
          15 -2 15 -4 14 vhcurveto
          155 hlineto
          63 13 -29 -43 hvcurveto
          -7 vlineto
          -57 -28 -13 -80 vhcurveto
          -25 -47 99 callgsubr
        </CharString>
        <CharString name="dvC_CA">
          310 724 -12 callsubr
          -746 -46 596 -474 hlineto
          -11 -32 297 callsubr
          152 vlineto
          60 11 32 0 vhcurveto
          115 46 -219 -46 51 hlineto
          0 -10 -32 -60 vvcurveto
          -153 vlineto
          -24 4 -21 9 -18 vhcurveto
          -9 -30 -36 -6 -41 hhcurveto
          -71 -28 23 56 172 callsubr
          82 46 -225 -47 91 hlineto
          0 -10 209 callgsubr
          49 -48 100 51 61 13 12 29 vhcurveto
          -16 23 33 -9 43 hhcurveto
          37 30 6 9 25 hvcurveto
          -78 52 -37 callgsubr
        </CharString>
        <CharString name="dvC_CHA">
          382 665 70 callsubr
          -819 -46 378 vlineto
          0 -10 -24 -49 vvcurveto
          -132 vlineto
          59 callgsubr
          -14 1 -13 2 -12 vhcurveto
          -9 -29 -36 -7 -38 71 callsubr
          45 49 12 9 26 vhcurveto
          -42 26 54 -17 90 hhcurveto
          136 52 38 105 hvcurveto
          163 callgsubr
          vlineto
          endchar
        </CharString>
        <CharString name="dvC_CH_VA">
          382 665 168 rmoveto
          -72 -26 -23 -110 -111 -26 22 72 vhcurveto
          35 vlineto
          45 20 28 73 65 callsubr
          132 vlineto
          46 10 27 0 vhcurveto
          185 -106 hlineto
          -35 -27 -9 0 hvcurveto
          -47 vlineto
          0 25 8 31 66 12 -29 -45 vhcurveto
          -52 -518 rmoveto
          -9 -31 -28 -3 -38 hhcurveto
          -73 -24 29 44 hvcurveto
          36 vlineto
          45 21 29 73 vhcurveto
          0 16 vlineto
          33 28 2 5 23 hvcurveto
          184 568 rmoveto
          46 -819 -46 377 vlineto
          0 -10 -24 -49 vvcurveto
          -132 vlineto
          -45 11 -36 46 -16 vhcurveto
          -47 261 callsubr
          -37 vlineto
          -14 1 -14 2 -12 vhcurveto
          -8 -28 -37 -7 -37 71 callsubr
          44 49 12 8 26 vhcurveto
          12 -18 17 -13 23 -10 rrcurveto
          -27 -19 -15 -31 -41 vvcurveto
          -36 vlineto
          -78 51 -41 96 38 33 3 8 27 vhcurveto
          -64 51 308 vlineto
          37 22 16 37 58 vvcurveto
          206 vlineto
          60 -22 41 -54 12 vhcurveto
          113 vlineto
          endchar
        </CharString>
        <CharString name="dvC_MA">
          463 727 428 175 callsubr
          340 264 rmoveto
          -900 -46 560 239 callgsubr
          -93 -38 -37 -77 hvcurveto
          -136 vlineto
          -20 3 -18 5 -15 vhcurveto
          -8 -29 -35 -6 -33 71 callsubr
          45 56 13 10 26 vhcurveto
          -16 21 31 -8 42 hhcurveto
          92 38 39 77 hvcurveto
          -12 callgsubr
        </CharString>
        <CharString name="dvC_NA">
          454 531 178 -103 callgsubr
          338 290 rmoveto
          -900 -46 749 318 callgsubr
          -20 3 -17 6 -15 vhcurveto
          -8 -32 -39 -7 -36 hhcurveto
          -71 -24 116 callsubr
          -259 -47 90 hlineto
          0 -9 209 callgsubr
          45 -48 101 49 55 12 12 32 vhcurveto
          -17 21 30 -8 39 hhcurveto
          83 43 39 77 hvcurveto
          -71 callgsubr
        </CharString>
        <CharString name="dvC_R">
          316 callgsubr
          -191 -258 332 callsubr
          90 hlineto
          0 -9 -31 -60 vvcurveto
          -150 vlineto
          -79 44 -48 110 14 13 1 1 11 vhcurveto
          -144 -126 rlineto
          67 hlineto
          155 138 rlineto
          48 vlineto
          -8 -31 -35 -5 -47 hhcurveto
          -81 -24 27 51 hvcurveto
          endchar
        </CharString>
        <CharString name="dvC_RA">
          65 -22 -12 callsubr
          -46 350 -439 vlineto
          -10 -31 -24 -4 -34 hhcurveto
          -70 -24 27 51 hvcurveto
          117 vlineto
          232 callsubr
          -258 -47 90 275 callsubr
          -116 vlineto
          -79 44 -48 100 vhcurveto
          5 hlineto
          -157 -154 rlineto
          69 hlineto
          172 168 2 1 rlineto
          -114 224 callgsubr
        </CharString>
        <CharString name="dvC_YA">
          374 637 -102 callgsubr
          151 46 rmoveto
          -810 -46 477 hlineto
          -60 callgsubr
          -45 10 -34 17 -25 vhcurveto
          -10 -32 -43 -10 -43 hhcurveto
          -70 -25 28 50 hvcurveto
          134 vlineto
          348 callsubr
          91 275 callsubr
          -134 vlineto
          -79 46 -47 101 71 59 22 10 26 vhcurveto
          0 vlineto
          -22 35 45 -7 46 -13 callgsubr
        </CharString>
        <CharString name="dvCandrabindu">
          -393 -139 856 rmoveto
          -20 9 -16 26 27 9 16 20 187 callgsubr
          -26 -9 -15 -21 vhcurveto
          138 -30 27 callgsubr
        </CharString>
        <CharString name="dvD">
          7 444 36 callsubr
          -339 408 rmoveto
          -70 callgsubr
          133 163 callsubr
          hlineto
          -97 -46 -41 -79 hvcurveto
          endchar
        </CharString>
        <CharString name="dvDA">
          7 46 204 rmoveto
          -70 callgsubr
          133 163 callsubr
          hlineto
          -97 -46 -41 -79 hvcurveto
          endchar
        </CharString>
        <CharString name="dvDA_mvR">
          7 322 455 rmoveto
          163 callsubr
          vlineto
          -97 -46 -41 -79 hvcurveto
          -112 vlineto
          -81 56 -47 96 39 24 3 7 28 vhcurveto
          -57 vlineto
          1 -8 -7 0 -6 hhcurveto
          -79 -52 -33 -96 -96 58 -32 79 26 15 1 4 28 hvcurveto
          52 vlineto
          -4 -24 -22 -2 -23 hhcurveto
          -44 -44 5 72 72 39 5 44 16 32 -2 -3 21 hvcurveto
          256 -49 -95 vlineto
          -7 -30 -20 -3 -39 hhcurveto
          -72 -30 31 49 hvcurveto
          112 148 callsubr
          endchar
        </CharString>
        <CharString name="dvDD">
          16 328 36 callsubr
          87 363 -37 callsubr
        </CharString>
        <CharString name="dvDDA">
          16 356 159 -37 callsubr
        </CharString>
        <CharString name="dvDDH">
          10 334 36 callsubr
          -74 708 rmoveto
          -97 -46 366 callsubr
          103 45 49 81 vhcurveto
          -53 callgsubr
          119 182 callgsubr
          hlineto
          endchar
        </CharString>
        <CharString name="dvDDHA">
          10 201 504 rmoveto
          -97 -46 366 callsubr
          103 45 49 81 vhcurveto
          -53 callgsubr
          119 182 callgsubr
          hlineto
          endchar
        </CharString>
        <CharString name="dvDDH_DDHA">
          12 321 359 callgsubr
          106 46 -449 309 callgsubr
          -46 15 -36 33 -22 vhcurveto
          -33 -20 -16 -33 -46 vvcurveto
          -154 vlineto
          -80 47 -49 102 103 46 49 80 vhcurveto
          14 135 callgsubr
          39 27 -20 -51 vhcurveto
          -13 vlineto
          -46 -19 -36 -78 -77 -20 36 46 vhcurveto
          154 vlineto
          45 20 29 72 vhcurveto
          6 hlineto
          102 46 49 80 hvcurveto
          16 135 callgsubr
          40 27 -20 -51 vhcurveto
          -15 254 callsubr
        </CharString>
        <CharString name="dvDDH_R">
          10 187 -159 83 callsubr
          84 614 21 callgsubr
        </CharString>
        <CharString name="dvDDH_RA">
          10 320 455 21 callgsubr
        </CharString>
        <CharString name="dvDDH_VA">
          22 283 -83 rmoveto
          344 callgsubr
          41 vlineto
          45 21 28 73 vhcurveto
          0 4 vlineto
          30 25 4 8 20 hvcurveto
          38 355 rmoveto
          144 115 46 -458 309 callgsubr
          -47 16 -36 33 -21 vhcurveto
          -32 -20 -17 -32 -45 vvcurveto
          -47 vlineto
          -73 51 -36 85 38 34 6 4 16 vhcurveto
          -62 50 329 vlineto
          16 21 7 27 32 vvcurveto
          16 135 callgsubr
          40 27 -20 -50 vhcurveto
          -16 254 callsubr
        </CharString>
        <CharString name="dvDDH_YA">
          481 744 241 callsubr
          18 vlineto
          77 -39 42 -89 vhcurveto
          -174 96 424 185 callgsubr
          -917 -46 290 -96 -67 hlineto
          -97 -46 366 callsubr
          103 45 49 81 vhcurveto
          -53 callgsubr
          293 hlineto
          64 12 -28 -43 hvcurveto
          -17 200 callsubr
        </CharString>
        <CharString name="dvDDHxA">
          10 201 504 rmoveto
          -97 -46 366 callsubr
          103 45 254 callgsubr
          40 26 -20 -51 vhcurveto
          -51 vlineto
          -47 -19 -35 -77 -77 -19 35 47 vhcurveto
          257 148 callsubr
          119 182 callgsubr
          hlineto
          -99 -635 rmoveto
          -43 callgsubr
          250 callsubr
          endchar
        </CharString>
        <CharString name="dvDD_DDA">
          253 callgsubr
          -32 -75 hvcurveto
          -5 205 callgsubr
          13 -3 15 -2 15 -2 rrcurveto
          -17 -18 -10 -25 -32 vvcurveto
          -77 48 -30 85 vhcurveto
          40 hlineto
          62 19 -19 -43 hvcurveto
          -17 vlineto
          -53 -22 -18 -82 -42 -60 8 10 -50 vhcurveto
          -47 vlineto
          -10 44 54 -8 54 hhcurveto
          108 49 282 callgsubr
          -41 hlineto
          -62 -19 18 43 47 19 17 62 hvcurveto
          0 17 vlineto
          109 48 282 callgsubr
          -40 hlineto
          -62 -19 18 43 hvcurveto
          4 vlineto
          43 19 17 62 vhcurveto
          endchar
        </CharString>
        <CharString name="dvDD_DDHA">
          253 callgsubr
          -31 -77 hvcurveto
          -4 205 callgsubr
          16 -3 17 -3 18 -3 rrcurveto
          -22 -20 -13 -29 -35 vvcurveto
          -152 vlineto
          -80 47 -49 102 103 46 49 80 vhcurveto
          14 135 callgsubr
          39 27 -20 -50 vhcurveto
          -14 vlineto
          -46 -19 -36 -78 -77 -20 36 47 vhcurveto
          153 vlineto
          45 19 29 72 vhcurveto
          0 6 vlineto
          108 49 282 callgsubr
          -40 hlineto
          -62 -19 18 43 47 19 17 62 hvcurveto
          endchar
        </CharString>
        <CharString name="dvDD_R">
          15 179 -159 83 callsubr
          98 616 107 callsubr
          29 -4 30 -2 -81 -148 rcurveline
          56 hlineto
          78 147 rlineto
          10 hlineto
          78 -147 rlineto
          56 hlineto
          -84 154 188 callsubr
        </CharString>
        <CharString name="dvDD_RA">
          16 327 457 107 callsubr
          28 -4 31 -2 -81 -147 rcurveline
          56 hlineto
          77 146 rlineto
          12 hlineto
          77 -146 rlineto
          56 hlineto
          -84 153 188 callsubr
        </CharString>
        <CharString name="dvDD_VA">
          23 114 16 rmoveto
          45 21 28 73 31 27 3 6 21 vhcurveto
          -181 vlineto
          -6 -22 -27 -4 -38 hhcurveto
          -62 -24 24 44 hvcurveto
          220 483 rmoveto
          142 103 46 -459 -46 303 -95 -92 vlineto
          -88 -46 -32 -75 hvcurveto
          -5 vlineto
          -77 47 -30 87 vhcurveto
          40 hlineto
          62 19 -19 -43 1 hvcurveto
          -17 vlineto
          -53 -23 -18 -82 -41 -70 6 12 -55 vhcurveto
          -48 vlineto
          16 -3 17 -3 19 -3 rrcurveto
          -20 -19 -10 -28 -34 vvcurveto
          -47 vlineto
          -73 52 -36 85 38 33 6 4 17 vhcurveto
          -62 49 317 vlineto
          18 19 9 27 36 vvcurveto
          17 vlineto
          77 -46 32 -88 vhcurveto
          -41 hlineto
          -62 -19 18 43 hvcurveto
          4 vlineto
          43 19 17 62 vhcurveto
          endchar
        </CharString>
        <CharString name="dvDD_YA">
          485 748 241 callsubr
          19 vlineto
          78 -39 41 -89 vhcurveto
          -171 95 421 185 callgsubr
          -921 21 callsubr
          40 vlineto
          -44 callsubr
          302 hlineto
          64 12 -28 -44 hvcurveto
          -18 200 callsubr
        </CharString>
        <CharString name="dvDDxA">
          16 168 -131 rmoveto
          -21 10 -16 27 26 10 16 21 20 337 callsubr
          -20 vhcurveto
          188 290 -37 callsubr
        </CharString>
        <CharString name="dvDH">
          -96 380 132 rmoveto
          -8 -28 -56 -12 -49 hhcurveto
          -79 -1 callgsubr
          103 50 53 12 9 31 vhcurveto
          endchar
        </CharString>
        <CharString name="dvDHA">
          97 82 600 rmoveto
          88 callgsubr
          -102 76 -42 103 50 35 6 9 30 358 callgsubr
          -151 -1 callsubr
          -262 -46 hlineto
          endchar
        </CharString>
        <CharString name="dvDH_MA">
          482 746 47 callsubr
          -422 rmoveto
          -43 -12 -90 callsubr
          79 hlineto
          -224 264 rmoveto
          -46 224 -172 300 callgsubr
          -136 vlineto
          -19 2 -16 5 -14 vhcurveto
          -7 -30 -40 -7 -37 226 callgsubr
          53 -19 callgsubr
          76 46 -233 -46 104 hlineto
          36 callgsubr
          -54 vlineto
          -102 76 -42 104 51 53 12 9 32 vhcurveto
          -17 21 31 -8 43 hhcurveto
          93 38 39 77 hvcurveto
          89 callsubr
          98 46 vlineto
          endchar
        </CharString>
        <CharString name="dvDH_NA">
          472 549 204 callsubr
          -232 290 rmoveto
          -46 419 327 callsubr
          vlineto
          -84 -43 -37 -77 hvcurveto
          -185 vlineto
          -19 3 -18 5 -14 vhcurveto
          -8 -31 -40 -7 -36 hhcurveto
          -80 -1 callgsubr
          104 51 55 14 9 32 vhcurveto
          -16 21 30 -8 38 213 callsubr
        </CharString>
        <CharString name="dvDH_N_YA">
          773 1036 118 callgsubr
          175 130 callgsubr
          -27 callgsubr
          638 299 rmoveto
          -841 -46 508 hlineto
          171 callsubr
          62 -5 -53 23 -79 hhcurveto
          -168 hlineto
          -83 -43 -37 -77 hvcurveto
          -176 vlineto
          -20 3 -18 6 -15 vhcurveto
          -7 -32 -40 -6 -37 hhcurveto
          -80 -1 callgsubr
          104 51 57 11 11 33 vhcurveto
          -15 21 28 -8 37 hhcurveto
          83 44 39 77 hvcurveto
          170 vlineto
          47 -13 26 0 vhcurveto
          48 hlineto
          53 41 -9 -41 hvcurveto
          -117 vlineto
          -68 callsubr
        </CharString>
        <CharString name="dvDH_R">
          -96 120 265 rmoveto
          44 19 28 73 vhcurveto
          34 49 113 callgsubr
          69 114 callgsubr
          77 46 -234 173 callsubr
          -69 vlineto
          -45 11 -36 46 -16 vhcurveto
          -47 261 callsubr
          -38 vlineto
          -104 73 -42 110 17 18 1 2 16 212 callsubr
          endchar
        </CharString>
        <CharString name="dvDH_RA">
          98 361 -12 callsubr
          -500 332 callgsubr
          30 vlineto
          139 callgsubr
          106 46 -262 -46 103 hlineto
          0 -7 -24 -49 vvcurveto
          -74 vlineto
          -45 10 -36 46 -16 vhcurveto
          140 callgsubr
        </CharString>
        <CharString name="dvDH_VA">
          328 592 134 rmoveto
          -98 callsubr
          -260 202 -50 callgsubr
          -233 -46 104 hlineto
          0 -9 -24 -49 vvcurveto
          -52 vlineto
          -45 11 -35 46 -17 vhcurveto
          49 callsubr
        </CharString>
        <CharString name="dvDH_YA">
          391 654 -102 callgsubr
          -322 46 -17 callgsubr
          -233 -46 104 hlineto
          0 -9 -24 -49 vvcurveto
          -52 vlineto
          -45 11 -35 46 -17 vhcurveto
          50 callgsubr
        </CharString>
        <CharString name="dvD_BA">
          19 299 26 rmoveto
          -8 0 -7 -2 -7 vhcurveto
          -161 124 rlineto
          10 14 21 6 30 hhcurveto
          31 51 6 5 16 hvcurveto
          -191 -89 rmoveto
          11 1 10 3 9 vhcurveto
          168 -128 rlineto
          -14 -14 -24 -9 -38 hhcurveto
          -76 -20 34 47 hvcurveto
          224 429 267 callgsubr
          -120 vlineto
          -45 17 -33 34 -20 vhcurveto
          -32 -20 -17 -34 -45 vvcurveto
          -41 vlineto
          -80 47 -48 101 101 43 49 80 1 vhcurveto
          307 -50 -132 vlineto
          -4 -22 -44 -6 -30 hhcurveto
          -73 -24 29 44 hvcurveto
          118 vlineto
          44 19 29 73 vhcurveto
          endchar
        </CharString>
        <CharString name="dvD_BHA">
          94 217 -30 rmoveto
          13 -18 4 -23 -34 -25 -37 -27 -21 13 -11 18 -16 20 rcurveline
          -13 19 -4 23 34 25 44 32 rcurveline
          232 428 rmoveto
          145 101 46 -531 -46 378 132 callgsubr
          -96 vlineto
          -81 56 -47 96 vhcurveto
          8 hlineto
          -103 -75 -51 71 -30 43 -45 4 -49 -37 rlinecurve
          -51 -35 -10 -45 30 -42 17 -21 rcurveline
          35 25 -16 23 -11 17 -3 21 33 24 rlinecurve
          32 23 18 -8 14 -17 51 -71 rcurveline
          -44 -32 -52 -38 -8 -46 29 -40 rlinecurve
          16 -22 30 -42 47 -7 53 37 rlinecurve
          52 39 6 46 -28 42 -42 57 rcurveline
          162 116 rlineto
          1 -114 49 260 -49 -98 hlineto
          345 callsubr
          95 148 callsubr
          endchar
        </CharString>
        <CharString name="dvD_B_RA">
          18 300 110 rmoveto
          -9 -1 -8 -1 -8 vhcurveto
          -160 103 rlineto
          9 14 21 5 28 hhcurveto
          36 46 8 7 17 hvcurveto
          -192 -93 rmoveto
          11 1 11 3 9 vhcurveto
          166 -106 -2 -2 -3 -2 -3 -2 rlinecurve
          -1 hlineto
          -2 -2 rlineto
          -8 -15 -20 -5 -28 hhcurveto
          -76 -20 35 47 hvcurveto
          224 345 267 callgsubr
          -63 vlineto
          -45 17 -33 34 -19 vhcurveto
          -31 -21 -17 -33 -45 vvcurveto
          -15 vlineto
          -80 46 -46 99 vhcurveto
          3 hlineto
          -113 -105 rlineto
          72 hlineto
          134 128 2 1 rlineto
          -75 49 411 -49 -80 vlineto
          -7 -19 -35 -7 -43 hhcurveto
          -73 -24 29 44 hvcurveto
          60 vlineto
          44 19 29 73 vhcurveto
          endchar
        </CharString>
        <CharString name="dvD_DA">
          14 330 457 rmoveto
          143 99 46 -451 -46 300 -96 -83 vlineto
          -96 -46 -41 -77 hvcurveto
          -13 vlineto
          -44 16 -32 31 -19 vhcurveto
          -31 -20 -16 -32 -44 vvcurveto
          -55 vlineto
          -76 56 -43 96 39 25 6 7 28 vhcurveto
          -88 49 228 -49 -92 vlineto
          -7 -23 -30 -7 -37 hhcurveto
          -72 -29 29 44 hvcurveto
          53 vlineto
          44 19 29 72 vhcurveto
          87 47 -87 hlineto
          -72 -19 29 329 callgsubr
          44 19 28 72 vhcurveto
          endchar
        </CharString>
        <CharString name="dvD_DHA">
          149 466 221 callsubr
          98 46 -586 -46 435 132 callgsubr
          -179 vlineto
          278 callsubr
          9 vlineto
          236 callsubr
          14 43 -14 hlineto
          57 callsubr
        </CharString>
        <CharString name="dvD_GA">
          15 330 221 callsubr
          100 46 -452 -46 300 132 callgsubr
          -142 vlineto
          -62 33 -43 60 -16 vhcurveto
          -78 vlineto
          -41 -4 -30 -62 -17 -16 3 0 vhcurveto
          -46 vlineto
          0 14 -5 22 88 26 45 73 vhcurveto
          72 9 vlineto
          38 24 3 7 28 hvcurveto
          -283 50 447 -50 -116 vlineto
          -7 -29 -21 -3 -39 hhcurveto
          -72 -30 31 49 hvcurveto
          142 148 callsubr
          endchar
        </CharString>
        <CharString name="dvD_GHA">
          150 54 63 rmoveto
          236 callsubr
          66 -94 hlineto
          278 callsubr
          412 401 rmoveto
          145 98 46 -586 -46 435 132 callgsubr
          -42 -66 vlineto
          57 callsubr
        </CharString>
        <CharString name="dvD_G_RA">
          16 330 233 callgsubr
          -451 -46 300 132 callgsubr
          -102 vlineto
          -62 33 -42 59 -17 vhcurveto
          -57 vlineto
          -42 -4 -30 -62 -17 -16 4 0 vhcurveto
          -46 vlineto
          0 13 -5 23 88 25 44 73 vhcurveto
          52 10 vlineto
          38 25 3 7 28 hvcurveto
          -120 vlineto
          -203 -209 rlineto
          65 hlineto
          38 39 72 72 29 36 1 3 rlinecurve
          -1 vlineto
          -1 -1 -33 -27 vvcurveto
          -48 48 461 -49 -125 vlineto
          -6 -30 -20 -3 -39 hhcurveto
          -72 -30 31 49 hvcurveto
          102 148 callsubr
          endchar
        </CharString>
        <CharString name="dvD_MA">
          227 490 132 rmoveto
          -150 198 -50 -95 hlineto
          -3 -14 -37 -8 -42 hhcurveto
          -73 -26 29 43 hvcurveto
          86 vlineto
          44 19 29 73 vhcurveto
          134 145 166 185 callgsubr
          -663 -46 293 -97 -81 hlineto
          -98 -46 -42 -78 hvcurveto
          -87 vlineto
          -77 53 -43 96 43 33 7 6 19 vhcurveto
          -149 50 46 150 -99 52 613 99 vlineto
          endchar
        </CharString>
        <CharString name="dvD_NA">
          7 322 455 rmoveto
          163 callsubr
          vlineto
          -97 -46 -41 -79 hvcurveto
          -160 vlineto
          -81 56 -45 96 vhcurveto
          -94 -65 -63 -44 -2 -47 29 -35 rlinecurve
          20 -25 40 -5 0 vvcurveto
          38 30 rlineto
          0 -37 7 -15 18 vhcurveto
          -19 24 8 22 35 24 151 105 rcurveline
          -115 49 269 -49 -107 vlineto
          345 callsubr
          159 148 callsubr
          endchar
        </CharString>
        <CharString name="dvD_R">
          5 337 -9 rmoveto
          241 -49 -68 vlineto
          -8 -30 -20 -4 -39 hhcurveto
          -72 -30 31 49 hvcurveto
          151 148 callsubr
          133 163 callsubr
          hlineto
          -98 -46 -41 -79 hvcurveto
          -151 vlineto
          -81 57 -46 96 vhcurveto
          14 hlineto
          -162 -174 rlineto
          66 hlineto
          171 183 2 1 rlineto
          -124 vlineto
          53 -54 rmoveto
          -49 hlineto
          225 callgsubr
          endchar
        </CharString>
        <CharString name="dvD_RA">
          5 323 233 callgsubr
          -444 -46 292 132 callgsubr
          -150 24 callsubr
        </CharString>
        <CharString name="dvD_VA">
          16 297 204 callgsubr
          33 297 rmoveto
          145 101 46 -453 -46 300 132 callgsubr
          98 callsubr
        </CharString>
        <CharString name="dvD_YA">
          83 498 -12 callsubr
          -520 -46 190 -78 hlineto
          -58 -1 -51 -24 -75 vvcurveto
          -30 vlineto
          -45 10 -35 47 -17 vhcurveto
          -47 -13 -16 -38 -44 vvcurveto
          -15 vlineto
          -102 69 -31 102 49 41 8 7 34 vhcurveto
          -67 51 600 99 vlineto
          -151 hmoveto
          -486 vlineto
          -7 -27 -47 -8 -46 hhcurveto
          -78 -43 15 72 hvcurveto
          14 vlineto
          44 20 29 73 vhcurveto
          30 47 -31 -8 callsubr
          26 vlineto
          53 31 10 52 vhcurveto
          27 119 hlineto
          endchar
        </CharString>
        <CharString name="dvE">
          31 349 63 rmoveto
          -8 -25 -47 -11 -49 hhcurveto
          -78 -25 30 49 hvcurveto
          477 156 callsubr
          -476 vlineto
          -88 54 -41 102 51 47 10 10 23 vhcurveto
          endchar
        </CharString>
        <CharString name="dvEcandra">
          31 322 837 rmoveto
          -53 -30 -15 -73 -73 -29 15 53 vhcurveto
          -49 -1 hlineto
          -86 53 -27 98 98 54 27 86 vhcurveto
          1 vlineto
          -27 -774 rmoveto
          -8 -24 -48 -11 -49 hhcurveto
          -71 -27 29 45 hvcurveto
          482 156 callsubr
          -483 vlineto
          -78 51 -44 99 52 47 10 10 23 vhcurveto
          endchar
        </CharString>
        <CharString name="dvEight">
          10 callsubr
        </CharString>
        <CharString name="dvEyelash">
          -151 -22 600 rmoveto
          365 46 -365 hlineto
          365 -321 rmoveto
          -161 hlineto
          -73 -40 -4 54 hvcurveto
          -49 -2 hlineto
          -86 64 -8 98 vhcurveto
          161 hlineto
          endchar
        </CharString>
        <CharString name="dvEyelash_HA">
          223 540 359 callgsubr
          98 46 -660 -46 510 -96 -94 vlineto
          -97 328 callgsubr
          -12 -74 vlineto
          -73 -40 5 55 hvcurveto
          -49 -3 hlineto
          -86 63 -17 99 vhcurveto
          81 hlineto
          8 -22 15 -16 23 -10 rrcurveto
          -37 -16 -19 -31 -46 vvcurveto
          -62 vlineto
          -81 50 -51 116 44 48 4 7 41 vhcurveto
          47 vlineto
          -8 -48 -39 -2 -45 hhcurveto
          -91 -23 37 48 329 callsubr
          23 47 callgsubr
          -36 39 -88 vhcurveto
          -44 hlineto
          -71 -19 26 329 callgsubr
          43 17 26 71 vhcurveto
          endchar
        </CharString>
        <CharString name="dvEyelash_YA">
          283 547 339 callsubr
          -6 -49 136 callsubr
          61 340 callsubr
          93 38 callgsubr
          -569 46 rmoveto
          -46 387 vlineto
          -40 callgsubr
          -91 vlineto
          -60 -28 -14 -84 vhcurveto
          -72 hlineto
          -73 -39 5 55 hvcurveto
          -50 -2 hlineto
          -87 64 -17 98 vhcurveto
          51 -63 hlineto
          -136 92 -32 100 84 callgsubr
          46 vlineto
          endchar
        </CharString>
        <CharString name="dvFive">
          63 callsubr
        </CharString>
        <CharString name="dvFour">
          157 callsubr
        </CharString>
        <CharString name="dvG">
          -140 185 600 rmoveto
          89 46 -296 -46 -94 callsubr
          endchar
        </CharString>
        <CharString name="dvGA">
          84 499 -12 callsubr
          -521 -46 -94 callsubr
          283 163 314 callgsubr
        </CharString>
        <CharString name="dvGH">
          -109 380 130 rmoveto
          -5 -18 -65 -13 -48 1 callgsubr
          228 46 -384 100 callsubr
          105 49 60 13 6 24 vhcurveto
          endchar
        </CharString>
        <CharString name="dvGHA">
          97 512 -12 callsubr
          -534 100 callsubr
          105 49 41 9 6 24 vhcurveto
          -79 52 600 99 vlineto
          -151 hmoveto
          -474 vlineto
          -5 -18 -46 -9 -48 1 callgsubr
          endchar
        </CharString>
        <CharString name="dvGH_MA">
          481 745 47 callsubr
          -172 rmoveto
          -78 hlineto
          -93 -38 -37 -77 hvcurveto
          -136 vlineto
          -21 3 -18 6 -15 vhcurveto
          -6 -31 -42 -6 -34 1 callgsubr
          422 hlineto
          -422 vmoveto
          -91 callsubr
          340 264 rmoveto
          -918 100 callsubr
          107 48 60 13 7 29 vhcurveto
          -15 21 30 -7 41 hhcurveto
          92 38 39 77 hvcurveto
          -12 callgsubr
        </CharString>
        <CharString name="dvGH_NA">
          472 736 103 callgsubr
          -185 vlineto
          -21 3 -18 7 -15 vhcurveto
          -6 -31 -43 -6 -34 1 callgsubr
          602 hlineto
          -187 -422 -103 callgsubr
          338 290 rmoveto
          -909 100 callsubr
          107 49 63 13 7 28 vhcurveto
          -15 20 29 -7 36 hhcurveto
          83 43 39 77 hvcurveto
          -71 callgsubr
        </CharString>
        <CharString name="dvGH_R">
          -105 378 600 rmoveto
          46 -400 -46 103 vlineto
          0 -8 -24 -49 vvcurveto
          -74 vlineto
          -45 11 -35 46 -16 vhcurveto
          -47 -13 264 callsubr
          -33 vlineto
          -104 73 -42 110 17 17 1 2 17 212 callsubr
          32 vlineto
          43 5 callsubr
          44 vvcurveto
          73 vlineto
          46 8 27 0 vhcurveto
          endchar
        </CharString>
        <CharString name="dvGH_RA">
          98 120 260 rmoveto
          139 callgsubr
          227 -454 hlineto
          259 callsubr
          -142 416 rmoveto
          -46 103 vlineto
          0 -7 -24 -49 vvcurveto
          -74 vlineto
          120 callsubr
          -45 vvcurveto
          -29 vlineto
          -104 75 -41 105 10 9 0 1 9 vhcurveto
          -148 -135 rlineto
          74 hlineto
          158 149 rlineto
          1 -101 289 callsubr
        </CharString>
        <CharString name="dvGH_YA">
          390 654 -102 callgsubr
          -534 -322 rmoveto
          43 19 29 73 vhcurveto
          34 49 113 callgsubr
          56 vlineto
          46 8 27 0 vhcurveto
          338 hlineto
          -60 callgsubr
          -42 9 -33 15 -24 vhcurveto
          -8 -37 -49 -8 -37 hhcurveto
          -81 -48 25 74 hvcurveto
          685 408 rmoveto
          -827 -46 103 hlineto
          0 -8 -24 -49 vvcurveto
          -56 vlineto
          -46 11 -35 46 -16 vhcurveto
          -47 -13 264 callsubr
          -42 vlineto
          -104 75 -40 107 51 70 13 12 38 vhcurveto
          -24 35 47 -8 49 -13 callgsubr
        </CharString>
        <CharString name="dvG_BA">
          280 361 343 -62 callgsubr
          147 202 rmoveto
          -716 -46 -94 callsubr
          283 362 -109 vlineto
          4 -10 -31 10 -47 hhcurveto
          -98 -52 -45 -79 hvcurveto
          -184 vlineto
          50 callsubr
        </CharString>
        <CharString name="dvG_BHA">
          445 185 600 rmoveto
          74 46 -281 -46 -94 callsubr
          334 -139 -26 callsubr
          46 vmoveto
          -79 hlineto
          41 callsubr
          138 -344 261 callgsubr
          -150 -26 callgsubr
          endchar
        </CharString>
        <CharString name="dvG_BH_YA">
          730 -22 600 rmoveto
          -94 callsubr
          283 67 46 -274 vlineto
          1016 -501 -38 callgsubr
          -8 24 0 vhcurveto
          131 hlineto
          -494 -422 120 callgsubr
          112 270 callsubr
          111 288 189 callgsubr
          -58 -25 -15 -78 -1 vhcurveto
          14 -11 -22 8 -35 hhcurveto
          -96 127 hlineto
          290 callgsubr
          -89 -39 -43 -77 -24 5 -31 147 callgsubr
          30 24 vvcurveto
          43 13 85 callgsubr
          -126 300 callgsubr
          -113 13 callsubr
          181 90 vlineto
          25 20 -6 -22 hvcurveto
          -76 vlineto
          -6 callsubr
          24 vhcurveto
          314 callsubr
        </CharString>
        <CharString name="dvG_DA">
          268 583 233 callgsubr
          -704 -46 155 200 callgsubr
          346 132 callgsubr
          -179 vlineto
          -70 callgsubr
          endchar
        </CharString>
        <CharString name="dvG_DHA">
          359 623 646 137 callsubr
          -524 -46 -94 callsubr
          283 159 vlineto
          0 -9 -24 -49 vvcurveto
          -70 vlineto
          -45 11 -36 46 -16 vhcurveto
          205 callsubr
        </CharString>
        <CharString name="dvG_DH_VA">
          590 854 134 rmoveto
          -98 callsubr
          -260 202 -50 callgsubr
          -495 -46 -94 callsubr
          283 159 vlineto
          0 -9 -24 -49 vvcurveto
          -52 vlineto
          -45 11 -35 46 -17 vhcurveto
          49 callsubr
        </CharString>
        <CharString name="dvG_DH_YA">
          652 916 -102 callgsubr
          -322 46 -17 callgsubr
          -495 -46 -94 callsubr
          283 159 vlineto
          0 -9 -24 -49 vvcurveto
          -52 vlineto
          -45 11 -35 46 -17 vhcurveto
          50 callgsubr
        </CharString>
        <CharString name="dvG_GA">
          316 731 -12 callsubr
          -753 -46 -94 callsubr
          283 180 200 callgsubr
          163 314 callgsubr
        </CharString>
        <CharString name="dvG_GHA">
          359 623 126 rmoveto
          -5 -18 -46 -9 -48 1 callgsubr
          227 185 callgsubr
          -796 -46 -94 callsubr
          283 158 vlineto
          32 callgsubr
          105 49 41 9 6 24 vhcurveto
          -79 -25 callsubr
        </CharString>
        <CharString name="dvG_JA">
          401 816 -12 callsubr
          -838 -46 -94 callsubr
          283 480 -120 -317 -47 112 vlineto
          -92 callsubr
          152 -434 52 600 99 hlineto
          endchar
        </CharString>
        <CharString name="dvG_LA">
          481 896 -12 callsubr
          -918 -46 -94 callsubr
          283 560 -138 vlineto
          10 -25 -21 5 -32 hhcurveto
          -52 -39 -16 -28 -21 hvcurveto
          27 -19 -36 17 -52 hhcurveto
          -92 -42 -48 -77 hvcurveto
          -48 callgsubr
        </CharString>
        <CharString name="dvG_MA">
          429 693 428 175 callsubr
          340 264 rmoveto
          -866 -46 -94 callsubr
          283 319 228 callsubr
          137 -382 52 600 99 vlineto
          endchar
        </CharString>
        <CharString name="dvG_NA">
          435 511 178 -103 callgsubr
          338 290 rmoveto
          -871 -46 -94 callsubr
          283 513 327 callsubr
          -69 callsubr
          148 -430 52 600 99 hlineto
          endchar
        </CharString>
        <CharString name="dvG_NNA">
          476 545 247 -31 callsubr
          345 46 rmoveto
          -912 -46 -94 callsubr
          283 135 -353 229 callgsubr
        </CharString>
        <CharString name="dvG_N_YA">
          725 989 339 callsubr
          -6 -49 hhcurveto
          -97 -43 -31 callgsubr
          -487 88 callsubr
          176 128 callsubr
          638 299 rmoveto
          -1162 -46 -94 callsubr
          283 622 vlineto
          171 callsubr
          62 -5 -53 23 -80 hhcurveto
          -167 167 callsubr
          -117 vlineto
          -136 93 -33 99 313 callsubr
        </CharString>
        <CharString name="dvG_R">
          74 callgsubr
          endchar
        </CharString>
        <CharString name="dvG_RA">
          80 494 -12 callsubr
          -516 -46 155 -243 hlineto
          -40 -15 -33 252 callsubr
          244 158 -327 vlineto
          -263 -273 rlineto
          69 hlineto
          95 98 71 72 30 32 1 3 rlinecurve
          -3 -2 -37 -76 vvcurveto
          -89 52 -37 callgsubr
        </CharString>
        <CharString name="dvG_R_YA">
          363 627 118 callsubr
          -8 24 0 vhcurveto
          131 hlineto
          370 callsubr
          -799 -46 155 -279 hlineto
          -40 -15 -33 -58 vhcurveto
          -7 -13 2 -8 hhcurveto
          -55 callgsubr
          53 68 hvcurveto
          280 259 vlineto
          -60 callgsubr
          -5 vlineto
          -240 -249 rlineto
          69 hlineto
          105 109 36 38 24 26 14 18 rlinecurve
          -84 25 77 -22 81 hhcurveto
          291 callgsubr
          24 hvcurveto
          -97 52 -37 callgsubr
        </CharString>
        <CharString name="dvG_SA">
          462 726 -19 callsubr
          370 callsubr
          -898 -46 -94 callsubr
          283 345 vlineto
          -106 callsubr
          168 -294 52 600 98 hlineto
          endchar
        </CharString>
        <CharString name="dvG_VA">
          290 554 134 rmoveto
          -98 callsubr
          151 202 rmoveto
          -727 -46 -94 callsubr
          283 369 -108 vlineto
          66 callgsubr
          -178 -46 callgsubr
        </CharString>
        <CharString name="dvG_YA">
          363 626 -102 callgsubr
          151 46 rmoveto
          -799 -46 -94 callsubr
          283 259 61 callgsubr
        </CharString>
        <CharString name="dvGx">
          -140 185 600 rmoveto
          89 46 -296 -46 -94 callsubr
          -140 -244 rmoveto
          -43 callgsubr
          250 callsubr
          endchar
        </CharString>
        <CharString name="dvGxA">
          85 101 103 rmoveto
          328 callsubr
          -43 callgsubr
          hvcurveto
          399 543 rmoveto
          -521 -46 -94 callsubr
          283 163 314 callgsubr
        </CharString>
        <CharString name="dvGx_R">
          74 callgsubr
          76 -387 rmoveto
          -43 callgsubr
          250 callsubr
          endchar
        </CharString>
        <CharString name="dvGx_RA">
          80 263 -30 rmoveto
          328 callsubr
          -43 callgsubr
          hvcurveto
          231 676 rmoveto
          -516 -46 155 -243 hlineto
          -40 -15 -33 252 callsubr
          244 158 -327 vlineto
          -263 -273 rlineto
          69 hlineto
          95 98 71 72 30 32 1 3 rlinecurve
          -3 -2 -37 -76 vvcurveto
          -89 52 -37 callgsubr
        </CharString>
        <CharString name="dvH">
          22 347 36 callsubr
          -238 332 rmoveto
          -47 callsubr
          146 144 98 46 -458 -46 308 -96 -94 hlineto
          -96 328 callgsubr
          -13 20 callgsubr
          endchar
        </CharString>
        <CharString name="dvHA">
          22 50 128 rmoveto
          -47 callsubr
          146 144 98 46 -458 -46 308 -96 -94 hlineto
          -96 328 callgsubr
          -13 20 callgsubr
          endchar
        </CharString>
        <CharString name="dvHA_mU">
          22 275 -5 rmoveto
          58 6 -24 -38 -39 -5 -24 -63 hvcurveto
          -77 hlineto
          -24 -21 4 34 -35 hvcurveto
          -61 61 rlineto
          -72 hlineto
          99 -98 rlineto
          -39 38 38 -10 37 hhcurveto
          80 hlineto
          86 32 34 77 76 -31 34 -83 hvcurveto
          -61 hlineto
          -90 -24 37 48 -32 callsubr
          146 144 98 46 -458 -46 308 -96 -94 hlineto
          -96 328 callgsubr
          -13 20 callgsubr
          -62 vlineto
          -81 50 -51 116 vhcurveto
          endchar
        </CharString>
        <CharString name="dvHA_mUU">
          21 366 -17 rmoveto
          38 -33 -29 22 -70 hhcurveto
          -18 hlineto
          -91 -23 37 48 329 callsubr
          23 47 callgsubr
          -36 39 -88 vhcurveto
          -44 hlineto
          -70 -20 26 329 callgsubr
          43 17 26 71 vhcurveto
          146 144 98 46 -458 -46 308 -96 -94 hlineto
          -97 328 callgsubr
          -13 20 callgsubr
          -62 vlineto
          -55 24 -38 51 -19 vhcurveto
          -26 -15 -11 -24 -43 vvcurveto
          -75 29 -35 85 vhcurveto
          91 49 -90 hlineto
          -57 -7 23 38 38 6 24 61 hvcurveto
          28 hlineto
          54 18 -16 -40 33 hvcurveto
          93 -114 rlineto
          65 hlineto
          endchar
        </CharString>
        <CharString name="dvHA_mvR">
          61 102 202 rmoveto
          43 23 26 71 vhcurveto
          117 hlineto
          43 24 -6 -43 -43 -24 -5 -43 hvcurveto
          -6 hlineto
          -76 -42 -22 -73 -74 49 -22 86 37 42 6 9 35 hvcurveto
          46 vlineto
          -8 -37 -38 -5 -38 hhcurveto
          -56 -28 5 43 43 23 5 43 hvcurveto
          7 hlineto
          77 40 23 72 72 -40 24 -77 hvcurveto
          -119 hlineto
          -71 -19 25 43 hvcurveto
          1 vlineto
          43 16 26 71 vhcurveto
          188 144 96 46 -498 -46 350 -96 -136 hlineto
          -96 328 callgsubr
          -2 vlineto
          -47 17 -29 36 -16 vhcurveto
          -37 -16 -19 -30 -46 vvcurveto
          -207 vlineto
          -82 61 -52 115 326 callsubr
          vhcurveto
          47 vlineto
          -12 -36 -33 -4 -53 hhcurveto
          -91 -34 34 54 hvcurveto
          endchar
        </CharString>
        <CharString name="dvH_LA">
          592 425 149 rmoveto
          -76 callgsubr
          64 28 336 callgsubr
          -657 -46 506 213 callgsubr
          endchar
        </CharString>
        <CharString name="dvH_MA">
          219 483 178 rmoveto
          -129 22 hlineto
          76 -37 39 -88 346 callsubr
          17 27 70 vhcurveto
          149 143 133 185 callgsubr
          -656 -46 320 -96 -97 hlineto
          -96 328 callgsubr
          -4 69 callsubr
          -30 -46 vvcurveto
          -76 vlineto
          -75 38 -56 114 vhcurveto
          47 vlineto
          -86 -13 42 41 hvcurveto
          77 vlineto
          43 23 26 72 vhcurveto
          21 hlineto
          66 10 -26 -43 hvcurveto
          -123 50 56 129 -136 52 604 99 vlineto
          endchar
        </CharString>
        <CharString name="dvH_NA">
          540 803 103 callgsubr
          -57 -219 vlineto
          287 callgsubr
          465 hlineto
          -187 -422 -103 callgsubr
          338 290 rmoveto
          -976 85 callsubr
          216 -81 hlineto
          -77 44 -39 83 -35 callgsubr
          -71 callgsubr
        </CharString>
        <CharString name="dvH_NNA">
          611 680 247 -31 callsubr
          -485 -294 rmoveto
          287 callgsubr
          117 -294 hlineto
          570 340 rmoveto
          -1047 85 callsubr
          257 -12 111 callgsubr
          143 -600 52 -37 callgsubr
        </CharString>
        <CharString name="dvH_R">
          35 208 -59 83 callsubr
          95 516 -2 callsubr
        </CharString>
        <CharString name="dvH_RA">
          35 352 457 -2 callsubr
        </CharString>
        <CharString name="dvH_VA">
          405 669 60 callsubr
        </CharString>
        <CharString name="dvH_YA">
          205 468 152 rmoveto
          -5 -18 -30 -5 -36 hhcurveto
          -46 hlineto
          6 11 3 14 16 vvcurveto
          26 vlineto
          76 -38 39 -89 346 callsubr
          16 27 71 vhcurveto
          150 134 126 185 callgsubr
          -641 -46 311 -86 -97 hlineto
          -96 -43 -40 -77 hvcurveto
          -4 20 callgsubr
          -84 vlineto
          -75 38 -56 113 vhcurveto
          47 vlineto
          -85 -14 42 41 hvcurveto
          85 vlineto
          44 24 26 72 vhcurveto
          21 hlineto
          68 8 -26 -44 hvcurveto
          -28 vlineto
          -26 -12 -11 -37 vhcurveto
          -47 137 vlineto
          40 29 5 5 16 hvcurveto
          -108 53 603 98 vlineto
          endchar
        </CharString>
        <CharString name="dvI">
          2 103 171 rmoveto
          -50 -234 50 104 hlineto
          -6 26 31 -3 38 hhcurveto
          107 46 39 80 hvcurveto
          41 vlineto
          77 -46 41 -97 vhcurveto
          -22 hlineto
          -71 -19 28 43 hvcurveto
          6 248 callsubr
          136 144 94 46 -438 -46 292 -96 -84 hlineto
          -97 -45 -40 -77 hvcurveto
          -6 vlineto
          -77 46 -41 96 vhcurveto
          22 90 callgsubr
          -41 vlineto
          -46 -30 -25 -72 -38 -29 2 6 -27 vhcurveto
          endchar
        </CharString>
        <CharString name="dvII">
          2 322 359 callgsubr
          94 46 -99 vlineto
          -16 33 -20 47 34 vvcurveto
          55 38 17 45 12 13 -1 -2 12 vhcurveto
          46 vlineto
          2 -13 -14 2 -18 hhcurveto
          -66 -62 -31 -86 -42 18 -41 18 -33 40 callgsubr
          endchar
        </CharString>
        <CharString name="dvII_Anusvara">
          2 347 742 rmoveto
          -20 9 -14 26 25 10 14 20 20 -10 15 -25 -26 -9 -15 -20 vhcurveto
          54 138 rmoveto
          1 -13 -14 3 -17 hhcurveto
          -68 -62 -32 -87 -42 18 -43 19 -34 40 callgsubr
          136 144 94 46 -99 hlineto
          -17 33 -20 49 35 vvcurveto
          56 39 18 45 12 13 -1 -2 12 vhcurveto
          endchar
        </CharString>
        <CharString name="dvJ">
          -56 422 -12 callsubr
          -444 -46 444 hlineto
          1 -120 rmoveto
          -325 -96 callgsubr
          160 hlineto
          endchar
        </CharString>
        <CharString name="dvJA">
          151 271 361 rmoveto
          210 callgsubr
          152 -434 52 600 99 46 -588 -46 437 45 callsubr
          endchar
        </CharString>
        <CharString name="dvJH">
          -2 196 23 rmoveto
          171 callgsubr
          181 46 -297 hlineto
          136 callgsubr
          150 46 -509 -33 callsubr
          endchar
        </CharString>
        <CharString name="dvJHA">
          200 197 263 rmoveto
          69 19 -29 -43 hvcurveto
          -47 vlineto
          -44 -24 -29 -72 -28 -28 2 8 -30 vhcurveto
          74 -49 -212 49 89 vlineto
          -7 29 23 -2 36 hhcurveto
          105 41 42 78 hvcurveto
          48 vlineto
          35 -10 25 -21 13 vhcurveto
          157 -264 52 600 99 46 -636 -46 300 -95 -85 hlineto
          -96 251 callsubr
          -7 vlineto
          -77 45 -41 96 vhcurveto
          -1 47 rmoveto
          -70 189 callsubr
          137 143 133 -290 hlineto
          endchar
        </CharString>
        <CharString name="dvJH_MA">
          583 847 47 callsubr
          -172 rmoveto
          -78 hlineto
          -93 -38 -37 -77 hvcurveto
          -4 -259 vlineto
          136 callgsubr
          321 hlineto
          -422 vmoveto
          -91 callsubr
          340 264 rmoveto
          -1020 -33 callsubr
          171 callgsubr
          143 -86 hlineto
          -25 callgsubr
        </CharString>
        <CharString name="dvJH_NA">
          589 853 103 callgsubr
          -53 -274 vlineto
          136 callgsubr
          516 hlineto
          -187 -422 -103 callgsubr
          338 290 rmoveto
          -1026 -33 callsubr
          171 callgsubr
          158 -86 hlineto
          -77 44 -39 83 -35 callgsubr
          -71 callgsubr
        </CharString>
        <CharString name="dvJH_R">
          39 521 190 rmoveto
          -261 -278 rlineto
          62 hlineto
          113 119 38 40 46 60 2 3 rlinecurve
          -180 57 rmoveto
          35 -11 24 -21 14 vhcurveto
          212 46 -325 hlineto
          -69 -18 28 43 hvcurveto
          300 callsubr
          178 143 143 46 -542 -46 346 -95 -125 hlineto
          -97 -45 -40 -77 hvcurveto
          -7 vlineto
          -78 44 -40 95 vhcurveto
          5 hlineto
          69 19 -29 -42 hvcurveto
          -50 194 callsubr
          endchar
        </CharString>
        <CharString name="dvJH_RA">
          230 341 191 rmoveto
          35 -11 24 -21 14 vhcurveto
          182 -105 hlineto
          -231 -247 rlineto
          62 hlineto
          113 119 38 40 23 36 1 4 rlinecurve
          1 -1 rlineto
          -1 -5 -3 -21 -28 vvcurveto
          -57 51 601 99 46 -666 -46 346 -95 -125 vlineto
          -97 -45 -40 -77 hvcurveto
          -7 vlineto
          -78 46 -40 95 vhcurveto
          3 hlineto
          69 19 -29 -42 hvcurveto
          -48 194 callsubr
          -142 314 rmoveto
          178 143 116 -290 -297 hlineto
          -69 189 callsubr
          endchar
        </CharString>
        <CharString name="dvJH_YA">
          514 778 -102 callgsubr
          -306 -218 rmoveto
          -72 -282 vlineto
          136 callgsubr
          259 hlineto
          -56 callsubr
          437 264 rmoveto
          -951 -33 callsubr
          171 callgsubr
          166 -10 158 callsubr
        </CharString>
        <CharString name="dvJ_BA">
          368 449 343 -62 callgsubr
          147 202 rmoveto
          -804 -46 657 208 callgsubr
          -43 -34 -9 -16 -25 hvcurveto
          -347 -96 callgsubr
          144 hlineto
          -7 -15 -3 -18 -20 vvcurveto
          -184 vlineto
          50 callsubr
        </CharString>
        <CharString name="dvJ_DA">
          358 673 233 callgsubr
          -794 -46 643 -97 -81 vlineto
          -42 -33 -8 -15 -23 hvcurveto
          -344 -47 112 hlineto
          0 8 -26 -46 vvcurveto
          -189 -85 callgsubr
          190 -81 callsubr
          142 hlineto
          -5 -15 -3 -17 -19 vvcurveto
          -179 vlineto
          -70 callgsubr
          endchar
        </CharString>
        <CharString name="dvJ_DDA">
          352 663 356 callsubr
          -788 -46 633 -95 -79 vlineto
          -45 -33 -8 -17 -24 hvcurveto
          -332 -96 callgsubr
          133 hlineto
          -5 -13 -2 -16 -17 vvcurveto
          -63 callsubr
          40 vlineto
          -44 callsubr
          endchar
        </CharString>
        <CharString name="dvJ_JA">
          514 928 -12 callsubr
          -950 -46 800 -120 -680 -96 callgsubr
          310 hlineto
          0 8 -28 -92 callgsubr
          -9 25 0 vhcurveto
          153 -434 324 callsubr
        </CharString>
        <CharString name="dvJ_JHA">
          534 797 310 rmoveto
          -272 hlineto
          -70 189 callsubr
          137 143 133 185 callgsubr
          -970 -46 634 -95 -85 hlineto
          -44 -34 -8 -17 -23 hvcurveto
          -328 -96 callgsubr
          129 hlineto
          -5 -13 -2 -16 -17 vvcurveto
          -7 vlineto
          -77 45 -41 96 vhcurveto
          5 91 callgsubr
        </CharString>
        <CharString name="dvJ_J_NYA">
          571 423 434 rmoveto
          46 -325 -47 112 vlineto
          -92 callsubr
          722 212 rmoveto
          -1007 -46 856 -120 -326 -46 120 hlineto
          27 callsubr
          153 -434 238 callsubr
        </CharString>
        <CharString name="dvJ_J_VA">
          740 1004 134 rmoveto
          -98 callsubr
          151 202 rmoveto
          -1177 -46 1026 121 callsubr
          -41 -33 -9 -16 -23 hvcurveto
          -712 -96 callgsubr
          310 hlineto
          0 8 -28 -92 callgsubr
          -9 25 0 vhcurveto
          146 hlineto
          -7 -16 -4 -19 -21 vvcurveto
          -178 -46 callgsubr
        </CharString>
        <CharString name="dvJ_J_YA">
          812 1075 -102 callgsubr
          151 46 rmoveto
          -1248 -46 915 129 callsubr
          -64 -3 vhcurveto
          70 -2 -39 27 -84 hhcurveto
          -593 -96 callgsubr
          310 hlineto
          0 8 -28 -92 callgsubr
          -9 25 0 vhcurveto
          61 hlineto
          68 15 -11 -49 hvcurveto
          -120 vlineto
          -68 callsubr
        </CharString>
        <CharString name="dvJ_KA">
          529 944 600 rmoveto
          46 -966 -46 635 -471 vlineto
          -104 callsubr
          -40 -32 -8 -16 -23 hvcurveto
          -343 -96 callgsubr
          142 hlineto
          -5 -15 -3 -16 -19 vvcurveto
          -193 -81 callgsubr
        </CharString>
        <CharString name="dvJ_MA">
          516 780 428 175 callsubr
          340 264 rmoveto
          -953 -46 613 239 callgsubr
          -17 -15 -1 -3 -13 hvcurveto
          39 -14 -45 17 -67 hhcurveto
          -244 -96 callgsubr
          73 hlineto
          47 28 -7 -20 11 hvcurveto
          -28 -18 -12 -31 -44 vvcurveto
          -136 vlineto
          -25 callgsubr
        </CharString>
        <CharString name="dvJ_NA">
          536 613 178 -103 callgsubr
          338 290 rmoveto
          -973 -46 822 327 callsubr
          hlineto
          -46 -34 -11 -23 -21 hvcurveto
          24 -19 -36 13 -50 hhcurveto
          -234 -96 callgsubr
          68 hlineto
          54 22 -17 -30 6 hvcurveto
          -1 -7 -1 -8 -9 vvcurveto
          -90 callgsubr
          148 -430 52 600 99 hlineto
          endchar
        </CharString>
        <CharString name="dvJ_NY">
          -7 142 434 rmoveto
          120 hlineto
          27 callsubr
          173 46 -346 hlineto
          -164 166 rmoveto
          -46 510 46 vlineto
          endchar
        </CharString>
        <CharString name="dvJ_NYA">
          205 -22 -12 callsubr
          -46 490 -120 -326 -46 120 vlineto
          27 callsubr
          153 -434 211 callgsubr
          46 hlineto
          endchar
        </CharString>
        <CharString name="dvJ_NY_YA">
          502 766 251 rmoveto
          -80 -2 -30 -37 -96 hhcurveto
          -98 -29 39 83 hvcurveto
          99 vlineto
          81 51 34 84 hvcurveto
          54 vlineto
          42 -13 22 -17 9 vhcurveto
          153 185 callgsubr
          -939 -46 533 hlineto
          63 17 -29 -44 hvcurveto
          -52 vlineto
          -53 -21 -17 -64 -3 vhcurveto
          65 -2 -62 13 -60 hhcurveto
          -240 -46 120 hlineto
          27 callsubr
          62 hlineto
          57 25 -6 -48 hvcurveto
          -126 vlineto
          -136 79 -33 99 72 38 18 26 19 vhcurveto
          -129 -25 callsubr
        </CharString>
        <CharString name="dvJ_R">
          -55 133 -46 37 callgsubr
        </CharString>
        <CharString name="dvJ_RA">
          154 420 434 31 callgsubr
        </CharString>
        <CharString name="dvJ_TA">
          389 803 -12 callsubr
          -825 -46 674 296 callsubr
          -41 -33 -8 -16 -24 hvcurveto
          -359 -96 callgsubr
          155 hlineto
          -7 -16 -4 -19 -21 vvcurveto
          -260 vlineto
          -64 callsubr
        </CharString>
        <CharString name="dvJ_TTA">
          344 667 455 303 callgsubr
          -779 -46 637 -97 -65 vlineto
          -42 -32 -8 -15 -23 hvcurveto
          -355 -96 callgsubr
          152 hlineto
          -6 -15 -3 -17 -20 vvcurveto
          61 callsubr
        </CharString>
        <CharString name="dvJ_VA">
          377 641 134 rmoveto
          -98 callsubr
          151 202 rmoveto
          -814 -46 663 121 callsubr
          -41 -33 -9 -16 -23 hvcurveto
          -349 -96 callgsubr
          145 hlineto
          -7 -16 -4 -19 -21 vvcurveto
          -178 -46 callgsubr
        </CharString>
        <CharString name="dvJ_YA">
          449 713 145 68 callsubr
          99 vlineto
          81 51 34 84 hvcurveto
          54 vlineto
          49 -7 365 callsubr
          -886 -46 553 hlineto
          -40 callgsubr
          -52 vlineto
          -53 -22 -17 -63 -3 vhcurveto
          65 -2 -62 13 -61 hhcurveto
          -231 -96 callgsubr
          60 hlineto
          57 26 -5 -49 hvcurveto
          -126 vlineto
          -136 92 -33 99 49 43 255 callgsubr
        </CharString>
        <CharString name="dvJx">
          -56 44 -64 rmoveto
          -21 9 -15 27 26 10 3 callsubr
          250 callsubr
          378 710 rmoveto
          -444 -46 444 hlineto
          1 -120 rmoveto
          -325 -96 callgsubr
          160 hlineto
          endchar
        </CharString>
        <CharString name="dvJxA">
          151 -2 -45 rmoveto
          -20 342 callgsubr
          10 16 20 21 337 callsubr
          -21 vhcurveto
          273 406 rmoveto
          210 callgsubr
          152 -434 52 600 99 46 -588 -46 437 45 callsubr
          endchar
        </CharString>
        <CharString name="dvJx_JxA">
          514 27 1 42 callgsubr
          364 hmoveto
          277 callgsubr
          -43 callgsubr
          hvcurveto
          537 645 rmoveto
          -950 -46 800 -120 -680 -96 callgsubr
          310 hlineto
          0 8 -28 -92 callgsubr
          -9 25 0 vhcurveto
          153 -434 324 callsubr
        </CharString>
        <CharString name="dvJx_R">
          -23 16 vmoveto
          -43 callgsubr
          250 callsubr
          151 -62 37 callgsubr
        </CharString>
        <CharString name="dvJx_RA">
          172 -1 24 rmoveto
          -43 callgsubr
          250 callsubr
          439 410 31 callgsubr
        </CharString>
        <CharString name="dvJx_YA">
          449 27 -8 42 callgsubr
          686 153 68 callsubr
          99 vlineto
          81 51 34 84 hvcurveto
          54 vlineto
          49 -7 365 callsubr
          -886 -46 553 hlineto
          -40 callgsubr
          -52 vlineto
          -53 -22 -17 -63 -3 vhcurveto
          65 -2 -62 13 -61 hhcurveto
          -231 -47 112 hlineto
          -40 callgsubr
          -188 vlineto
          -48 -25 -33 -70 -37 -28 5 7 246 callgsubr
          49 81 hvcurveto
          189 vlineto
          210 callgsubr
          60 hlineto
          57 26 -5 -49 hvcurveto
          -126 vlineto
          -136 92 -33 99 49 43 255 callgsubr
        </CharString>
        <CharString name="dvK">
          4 473 358 rmoveto
          51 25 hlineto
          71 -27 50 -102 97 callsubr
          vhcurveto
          106 224 46 -562 63 callgsubr
          68 11 -29 -44 hvcurveto
          endchar
        </CharString>
        <CharString name="dvKA">
          181 264 -5 callsubr
          endchar
        </CharString>
        <CharString name="dvKH">
          123 100 271 -21 callgsubr
        </CharString>
        <CharString name="dvKHA">
          327 591 176 callgsubr
          -763 -101 callgsubr
          289 -106 hlineto
          5 -26 -29 4 -28 hhcurveto
          -93 -39 298 callgsubr
          92 34 25 299 callsubr
          98 vlineto
          endchar
        </CharString>
        <CharString name="dvKH_KHA">
          869 1133 189 rmoveto
          -6 -15 -32 -4 -34 hhcurveto
          -68 -15 29 43 hvcurveto
          132 vlineto
          43 15 29 68 31 327 callgsubr
          -706 -63 -9 callsubr
          857 395 rmoveto
          -1306 -101 callgsubr
          491 258 callgsubr
          64 vlineto
          77 -41 43 -93 -93 341 callsubr
          -132 vlineto
          265 callgsubr
          35 28 5 10 21 vhcurveto
          -112 13 94 -38 117 hhcurveto
          54 53 8 7 34 hvcurveto
          51 vlineto
          -8 -30 -49 -9 -62 hhcurveto
          -103 -71 33 96 hvcurveto
          97 vlineto
          -4 18 23 144 callgsubr
          -13 -33 callgsubr
          289 -106 hlineto
          5 -26 -29 4 -28 hhcurveto
          -92 -40 298 callgsubr
          93 34 24 299 callsubr
          99 vlineto
          endchar
        </CharString>
</ttFont>
